<?xml version="1.0" standalone="no"?>
<!DOCTYPE svg PUBLIC "-//W3C//DTD SVG 1.1//EN" "http://www.w3.org/Graphics/SVG/1.1/DTD/svg11.dtd" >
<svg xmlns="http://www.w3.org/2000/svg" xmlns:xlink="http://www.w3.org/1999/xlink" version="1.1">
<metadata>
Created by FontForge 20170731 at Mon Sep  5 11:57:37 2016
 By Aleksey,,,
Copyright (c) 2016 by Chris Simpson.
</metadata>
<defs>
<font id="Metropolis-ExtraLight" horiz-adv-x="565" >
  <font-face 
    font-family="Metropolis Extra Light"
    font-weight="400"
    font-stretch="normal"
    units-per-em="1000"
    panose-1="0 0 5 0 0 0 0 0 0 0"
    ascent="800"
    descent="-200"
    x-height="517"
    cap-height="687"
    bbox="-166 -270 1102 965"
    underline-thickness="20"
    underline-position="-173"
    unicode-range="U+0020-2212"
  />
<missing-glyph horiz-adv-x="500" 
d="M410 795v-1000h-317v1000h317zM333 728h-165v-33h65v-37h-66v-33h166v33h-66v37h66v33zM267 599h-100v-104h166v34h-66v70zM233 565v-36h-33v36h33zM333 468h-166v-33h66v-37h-66v-33h100v70h66v33zM333 408h-33v-66h-133v-34h166v100zM333 286h-100v-56h34v23h33v-47
h-100v80h-33v-113h166v113zM333 113h-166v-113h166v113zM300 80v-47h-100v47h100zM333 -23h-166v-33h70l-70 -47v-33h166v33h-102l70 47h32v33z" />
    <glyph glyph-name=".notdef" horiz-adv-x="500" 
d="M410 795v-1000h-317v1000h317zM333 728h-165v-33h65v-37h-66v-33h166v33h-66v37h66v33zM267 599h-100v-104h166v34h-66v70zM233 565v-36h-33v36h33zM333 468h-166v-33h66v-37h-66v-33h100v70h66v33zM333 408h-33v-66h-133v-34h166v100zM333 286h-100v-56h34v23h33v-47
h-100v80h-33v-113h166v113zM333 113h-166v-113h166v113zM300 80v-47h-100v47h100zM333 -23h-166v-33h70l-70 -47v-33h166v33h-102l70 47h32v33z" />
    <glyph glyph-name=".null" horiz-adv-x="0" 
 />
    <glyph glyph-name="nonmarkingreturn" horiz-adv-x="333" 
 />
    <glyph glyph-name="space" unicode=" " horiz-adv-x="290" 
 />
    <glyph glyph-name="exclam" unicode="!" horiz-adv-x="241" 
d="M101 193l-7 494h55l-7 -494h-41zM122 -12q-16 0 -27.5 11.5t-11.5 27.5q0 15 11.5 26t27.5 11q15 0 26 -11.5t11 -25.5q0 -16 -11 -27.5t-26 -11.5z" />
    <glyph glyph-name="quotedbl" unicode="&#x22;" horiz-adv-x="393" 
d="M90 447q-19 157 -19 173q0 15 10.5 25.5t24.5 10.5t25 -10.5t11 -25.5q0 -16 -19 -173h-33zM271 447q-19 157 -19 173q0 15 10.5 25.5t24.5 10.5t25 -10.5t11 -25.5q0 -16 -19 -173h-33z" />
    <glyph glyph-name="numbersign" unicode="#" horiz-adv-x="670" 
d="M619 455h-126l-57 -223h127l-11 -44h-127l-47 -188h-47l47 188h-169l-47 -188h-47l47 188h-123l11 44h123l57 223h-125l11 44h125l47 188h47l-47 -188h169l47 188h47l-47 -188h126zM389 232l57 223h-169l-57 -223h169z" />
    <glyph glyph-name="dollar" unicode="$" horiz-adv-x="606" 
d="M552 180q0 -81 -61 -134.5t-163 -56.5v-63h-50v65q-135 12 -232 107l31 39q83 -83 201 -98v292q-105 26 -153 66t-48 107q0 80 56 134t145 61v60h50v-60q119 -11 210 -97l-30 -39q-79 76 -180 87v-278q117 -28 170.5 -72t53.5 -120zM127 508q0 -44 36 -72.5t115 -50.5
v266q-67 -5 -109 -45t-42 -98zM328 37q78 2 126 41t48 98q0 53 -41 85.5t-133 56.5v-281z" />
    <glyph glyph-name="percent" unicode="%" horiz-adv-x="778" 
d="M197 349q-66 0 -108 48t-42 122q0 76 42 125t109 49q66 0 108 -48.5t42 -123.5t-42.5 -123.5t-108.5 -48.5zM128 0l470 687h54l-470 -687h-54zM198 391q46 0 75.5 36.5t29.5 92.5q0 57 -30 94t-76 37t-75.5 -37t-29.5 -94q0 -56 30 -92.5t76 -36.5zM579 -10
q-66 0 -108 48.5t-42 123.5t42.5 123.5t108.5 48.5t108 -48.5t42 -122.5q0 -75 -42.5 -124t-108.5 -49zM580 32q46 0 75.5 36.5t29.5 93.5t-30 93.5t-76 36.5t-75.5 -36.5t-29.5 -92.5q0 -57 30 -94t76 -37z" />
    <glyph glyph-name="ampersand" unicode="&#x26;" horiz-adv-x="653" 
d="M611 15l-47 -22q-71 71 -101 102q-90 -107 -205 -107q-90 0 -153.5 56.5t-63.5 140.5q0 126 167 196q-68 90 -68 154q0 65 47 112.5t115 47.5q64 0 111 -47t47 -112q0 -62 -44 -99t-132 -73q52 -63 177 -195q47 67 92 167l44 -20q-53 -112 -103 -182q35 -35 117 -119z
M302 649q-47 0 -80 -33.5t-33 -81.5q0 -52 65 -134q84 34 120.5 62.5t36.5 73.5q0 46 -32 79.5t-77 33.5zM259 34q92 0 172 94q-122 127 -195 217q-146 -64 -146 -161q0 -63 49.5 -106.5t119.5 -43.5z" />
    <glyph glyph-name="quotesingle" unicode="'" horiz-adv-x="213" 
d="M90 447q-19 157 -19 173q0 15 10.5 25.5t24.5 10.5t25 -10.5t11 -25.5q0 -16 -19 -173h-33z" />
    <glyph glyph-name="parenleft" unicode="(" horiz-adv-x="339" 
d="M263 -170q-95 91 -148 205t-53 230q0 115 52.5 228.5t148.5 206.5l30 -31q-180 -186 -180 -404t180 -403z" />
    <glyph glyph-name="parenright" unicode=")" horiz-adv-x="339" 
d="M76 -170l-30 32q180 185 180 403t-180 404l30 31q96 -93 148.5 -206.5t52.5 -228.5q0 -116 -53 -230t-148 -205z" />
    <glyph glyph-name="asterisk" unicode="*" horiz-adv-x="376" 
d="M187 395q-8 0 -14 5.5t-6 12.5q0 20 6 61t7 53q-9 -7 -41 -33t-50 -36q-17 -8 -27 9q-9 17 7 26q17 10 56 26t48 20q-11 5 -49 20.5t-55 25.5q-16 8 -7 26q11 18 27 9q16 -10 47.5 -35t43.5 -34q-1 12 -7 53t-6 61q0 7 6 12.5t14 5.5q9 0 15 -5t6 -13q0 -16 -2.5 -34
t-6 -42t-5.5 -38q12 9 43.5 34t48.5 35q6 3 14 0.5t12 -9.5q11 -16 -6 -26q-17 -11 -57.5 -27t-47.5 -19q9 -4 48 -20t57 -26q7 -3 9 -10.5t-3 -15.5q-4 -7 -12 -10t-14 1q-16 10 -47 34.5t-45 34.5q2 -14 5.5 -38t6 -42t2.5 -34q0 -8 -6 -13t-15 -5z" />
    <glyph glyph-name="plus" unicode="+" horiz-adv-x="593" 
d="M526 358v-48h-205v-205h-49v205h-205v48h205v206h49v-206h205z" />
    <glyph glyph-name="comma" unicode="," horiz-adv-x="249" 
d="M109 -126l-30 22q41 48 52 92q-17 0 -28 11t-11 27t11.5 27t27.5 11q19 0 30.5 -14.5t11.5 -40.5q0 -53 -64 -135z" />
    <glyph glyph-name="hyphen" unicode="-" horiz-adv-x="371" 
d="M56 248v48h259v-48h-259z" />
    <glyph glyph-name="period" unicode="." horiz-adv-x="221" 
d="M112 -12q-16 0 -27.5 11.5t-11.5 27.5q0 15 11.5 26t27.5 11q15 0 26 -11.5t11 -25.5q0 -16 -11 -27.5t-26 -11.5z" />
    <glyph glyph-name="slash" unicode="/" horiz-adv-x="384" 
d="M-16 -74l351 817h54l-351 -817h-54z" />
    <glyph glyph-name="zero" unicode="0" horiz-adv-x="660" 
d="M330 -12q-119 0 -195 99.5t-76 256.5q0 156 76 255.5t195 99.5t195 -99.5t76 -255.5q0 -157 -76 -256.5t-195 -99.5zM330 36q97 0 159 86.5t62 221.5t-62 221t-159 86t-159 -86t-62 -221t62 -221.5t159 -86.5z" />
    <glyph glyph-name="one" unicode="1" horiz-adv-x="339" 
d="M194 0v624l-144 -91l-24 39l178 115h40v-687h-50z" />
    <glyph glyph-name="two" unicode="2" horiz-adv-x="582" 
d="M49 0v48l262 224q141 121 141 225q0 64 -45.5 110t-115.5 46q-116 0 -199 -116l-37 30q90 132 236 132q91 0 151 -58.5t60 -142.5q0 -125 -158 -261l-220 -188h392v-49h-467z" />
    <glyph glyph-name="three" unicode="3" horiz-adv-x="562" 
d="M280 -12q-144 0 -240 127l35 34q79 -113 205 -113q74 0 124.5 44.5t50.5 108.5q0 65 -51 100t-141 35h-66v48h67q81 -1 128.5 35t47.5 99q0 60 -49 102.5t-118 42.5q-107 0 -188 -111l-36 31q97 128 228 128q89 0 151 -54.5t62 -132.5q0 -60 -32.5 -102t-86.5 -58
q60 -13 97 -56.5t37 -108.5q0 -83 -65.5 -141t-159.5 -58z" />
    <glyph glyph-name="four" unicode="4" horiz-adv-x="602" 
d="M393 0v179h-346l-7 46l340 462h63v-460h110v-48h-110v-179h-50zM100 227h293v400z" />
    <glyph glyph-name="five" unicode="5" horiz-adv-x="585" 
d="M299 -12q-147 0 -243 109l33 37q88 -99 211 -99q74 0 126 51.5t52 124.5q0 68 -51 115.5t-125 47.5q-83 0 -157 -57l-43 22l10 348h386v-49h-338l-7 -268q64 51 159 51q90 0 153 -59.5t63 -147.5q0 -95 -66.5 -160.5t-162.5 -65.5z" />
    <glyph glyph-name="six" unicode="6" horiz-adv-x="594" 
d="M316 429q90 0 154 -61.5t64 -153.5q0 -94 -66 -160t-162 -66q-119 0 -182.5 92.5t-63.5 252.5q0 158 74.5 262t188.5 104q110 0 195 -82l-27 -40q-76 74 -170 74q-92 0 -151.5 -90t-59.5 -228q0 -19 1 -28q20 54 77 89t128 35zM306 34q75 0 126.5 53t51.5 125t-52 121.5
t-125 49.5q-68 0 -121.5 -41t-68.5 -104q16 -96 64.5 -150t124.5 -54z" />
    <glyph glyph-name="seven" unicode="7" horiz-adv-x="593" 
d="M156 0l302 638h-399v49h458v-39l-304 -648h-57z" />
    <glyph glyph-name="eight" unicode="8" horiz-adv-x="577" 
d="M288 -12q-98 0 -167 55t-69 135q0 60 42.5 108.5t108.5 67.5q-60 21 -96.5 65.5t-36.5 99.5q0 76 64.5 128t153.5 52q90 0 155 -52t65 -128q0 -56 -37 -100.5t-96 -64.5q66 -20 108 -68t42 -108q0 -80 -69 -135t-168 -55zM288 377q71 5 120.5 42.5t49.5 94.5t-50 97
t-120 40q-69 0 -118.5 -40t-49.5 -97t49 -94.5t119 -42.5zM288 36q77 0 132 42.5t55 102.5q0 62 -55 103t-132 43q-77 -2 -131.5 -43t-54.5 -103q0 -60 55 -102.5t131 -42.5z" />
    <glyph glyph-name="nine" unicode="9" horiz-adv-x="594" 
d="M288 699q119 0 182.5 -92.5t63.5 -252.5q0 -158 -74.5 -262t-188.5 -104q-110 0 -195 82l27 40q76 -74 170 -74q92 0 151.5 90t59.5 228q0 19 -1 28q-20 -54 -77 -89t-128 -35q-90 0 -154 61.5t-64 153.5q0 93 66 159.5t162 66.5zM287 304q68 0 121.5 41t68.5 104
q-16 96 -64.5 150t-124.5 54q-75 0 -126.5 -53t-51.5 -125t52 -121.5t125 -49.5z" />
    <glyph glyph-name="colon" unicode=":" horiz-adv-x="221" 
d="M112 426q-16 0 -27.5 11t-11.5 28q0 15 11.5 26t27.5 11q15 0 26 -11.5t11 -25.5q0 -16 -11 -27.5t-26 -11.5zM112 -12q-16 0 -27.5 11.5t-11.5 27.5q0 15 11.5 26t27.5 11q15 0 26 -11.5t11 -25.5q0 -16 -11 -27.5t-26 -11.5z" />
    <glyph glyph-name="semicolon" unicode=";" horiz-adv-x="249" 
d="M131 426q-16 0 -27.5 11.5t-11.5 27.5q0 15 11.5 26t27.5 11q15 0 26 -11.5t11 -25.5q0 -16 -11 -27.5t-26 -11.5zM109 -126l-30 22q41 48 52 92q-17 0 -28 11t-11 27t11.5 27t27.5 11q19 0 30.5 -14.5t11.5 -40.5q0 -53 -64 -135z" />
    <glyph glyph-name="less" unicode="&#x3c;" horiz-adv-x="586" 
d="M510 97l-455 222v49l455 222v-52l-399 -194l399 -194v-53z" />
    <glyph glyph-name="equal" unicode="=" horiz-adv-x="593" 
d="M67 420v48h459v-48h-459zM67 200v48h459v-48h-459z" />
    <glyph glyph-name="greater" unicode="&#x3e;" horiz-adv-x="586" 
d="M76 97v53l399 194l-399 194v52l455 -222v-49z" />
    <glyph glyph-name="question" unicode="?" horiz-adv-x="493" 
d="M199 193v171q87 7 143.5 48.5t56.5 97.5q0 58 -43.5 99.5t-105.5 41.5q-114 0 -189 -101l-34 34q93 115 225 115q83 0 140 -54t57 -130q0 -68 -56 -121t-144 -70v-131h-50zM225 -12q-16 0 -27.5 11.5t-11.5 27.5q0 15 11.5 26t27.5 11q15 0 26 -11.5t11 -25.5
q0 -16 -11 -27.5t-26 -11.5z" />
    <glyph glyph-name="at" unicode="@" horiz-adv-x="881" 
d="M426 -116q-155 0 -268.5 111t-113.5 264q0 169 124 292.5t294 123.5q153 0 264 -105.5t111 -250.5q0 -115 -52.5 -178t-124.5 -63q-44 0 -73.5 23t-37.5 63q-29 -38 -73 -62t-93 -24q-69 0 -113 48.5t-44 124.5q0 102 67 176t156 74q50 0 86.5 -23t54.5 -58l14 66l49 -5
q-55 -250 -55 -290q0 -34 21 -53.5t55 -19.5q48 0 87.5 52t39.5 149q0 130 -101 225t-240 95q-154 0 -266 -112.5t-112 -266.5q0 -139 102.5 -240t243.5 -101q115 0 216 61l18 -27q-108 -69 -236 -69zM395 122q68 0 113.5 51t58.5 127q11 70 -19.5 113.5t-92.5 43.5
q-73 0 -127 -60t-54 -142q0 -59 33.5 -96t87.5 -37z" />
    <glyph glyph-name="A" unicode="A" horiz-adv-x="725" 
d="M638 0l-75 169h-401l-75 -169h-55l303 687h55l303 -687h-55zM183 217h359l-179 408z" />
    <glyph glyph-name="B" unicode="B" horiz-adv-x="663" 
d="M94 0v687h296q83 0 136 -48t53 -123q0 -54 -26 -95.5t-70 -60.5q56 -21 89.5 -68t33.5 -104q0 -82 -57.5 -135t-146.5 -53h-308zM144 383h248q60 0 98.5 36.5t38.5 93.5q0 55 -40.5 90.5t-104.5 35.5h-240v-256zM144 48h252q70 0 115 40t45 103t-45 103.5t-115 40.5h-252
v-287z" />
    <glyph glyph-name="C" unicode="C" horiz-adv-x="680" 
d="M404 -12q-143 0 -247.5 105.5t-104.5 250.5t104.5 250t247.5 105q144 0 247 -105l-35 -35q-89 92 -212 92t-212.5 -91t-89.5 -216t89.5 -216.5t212.5 -91.5t212 92l35 -35q-105 -105 -247 -105z" />
    <glyph glyph-name="D" unicode="D" horiz-adv-x="751" 
d="M94 0v687h234q158 0 258.5 -96t100.5 -247t-101 -247.5t-258 -96.5h-234zM144 48h184q136 0 222 83t86 213t-86 212.5t-222 82.5h-184v-591z" />
    <glyph glyph-name="E" unicode="E" horiz-adv-x="599" 
d="M544 638h-415v-264h381v-48h-381v-277h415v-49h-465v687h465v-49z" />
    <glyph glyph-name="F" unicode="F" horiz-adv-x="594" 
d="M557 638h-428v-264h387v-48h-387v-326h-50v687h478v-49z" />
    <glyph glyph-name="G" unicode="G" horiz-adv-x="744" 
d="M395 299v49h275v-256q-52 -49 -122 -76.5t-144 -27.5q-143 0 -247.5 105.5t-104.5 250.5t104.5 250t247.5 105q75 0 145 -27.5t121 -75.5l-35 -35q-44 42 -105.5 66t-125.5 24q-123 0 -212.5 -91t-89.5 -216t89.5 -216.5t212.5 -91.5q125 0 216 77v186h-225z" />
    <glyph glyph-name="H" unicode="H" horiz-adv-x="691" 
d="M562 687h50v-687h-50v326h-433v-326h-50v687h50v-313h433v313z" />
    <glyph glyph-name="I" unicode="I" horiz-adv-x="208" 
d="M79 0v687h50v-687h-50z" />
    <glyph glyph-name="J" unicode="J" horiz-adv-x="526" 
d="M230 -12q-60 0 -116 31.5t-88 82.5l34 37q27 -46 73 -74.5t97 -28.5q70 0 115 50.5t45 130.5v470h50v-470q0 -101 -59 -165t-151 -64z" />
    <glyph glyph-name="K" unicode="K" horiz-adv-x="628" 
d="M92 0v687h50v-413l379 413h66l-286 -312l307 -375h-64l-278 339l-124 -134v-205h-50z" />
    <glyph glyph-name="L" unicode="L" horiz-adv-x="541" 
d="M118 49h389v-49h-439v687h50v-638z" />
    <glyph glyph-name="M" unicode="M" horiz-adv-x="826" 
d="M94 0v687h50l269 -506l269 506h50v-687h-50v583l-269 -506l-269 506v-583h-50z" />
    <glyph glyph-name="N" unicode="N" horiz-adv-x="742" 
d="M94 0v687h50l454 -607v607h50v-687h-50l-454 607v-607h-50z" />
    <glyph glyph-name="O" unicode="O" horiz-adv-x="807" 
d="M404 -12q-143 0 -247.5 105.5t-104.5 250.5t104.5 250t247.5 105t247 -105t104 -250t-104 -250.5t-247 -105.5zM404 36q122 0 211.5 91.5t89.5 216.5t-89.5 216t-211.5 91q-123 0 -212.5 -91t-89.5 -216t89.5 -216.5t212.5 -91.5z" />
    <glyph glyph-name="P" unicode="P" horiz-adv-x="641" 
d="M79 0v687h286q105 0 174 -60t69 -153t-69 -153.5t-174 -60.5h-236v-260h-50zM129 309h226q90 0 146 45.5t56 119.5q0 73 -56 118.5t-146 45.5h-226v-329z" />
    <glyph glyph-name="Q" unicode="Q" horiz-adv-x="807" 
d="M755 344q0 -138 -95 -241l77 -66l-33 -37l-79 69q-99 -81 -221 -81q-143 0 -247.5 105.5t-104.5 250.5t104.5 250t247.5 105t247 -105t104 -250zM404 36q101 0 183 66l-125 109l32 37l129 -112q82 88 82 208q0 125 -89.5 216t-211.5 91q-123 0 -212.5 -91t-89.5 -216
t89.5 -216.5t212.5 -91.5z" />
    <glyph glyph-name="R" unicode="R" horiz-adv-x="643" 
d="M608 474q0 -84 -56.5 -142t-146.5 -69l184 -263h-59l-182 260h-219v-260h-50v687h286q105 0 174 -60t69 -153zM129 638v-329h226q90 0 146 45.5t56 119.5q0 73 -56 118.5t-146 45.5h-226z" />
    <glyph glyph-name="S" unicode="S" horiz-adv-x="606" 
d="M317 -11q-160 0 -271 109l31 39q100 -100 242 -100q82 0 132.5 39.5t50.5 99.5q0 56 -47 90t-153 59q-119 27 -172 67.5t-53 111.5q0 85 63 140.5t160 55.5q134 0 238 -98l-30 -39q-94 89 -211 89q-74 0 -122 -41t-48 -103q0 -50 46.5 -80t153.5 -56q117 -28 171 -72
t54 -120q0 -83 -64.5 -137t-170.5 -54z" />
    <glyph glyph-name="T" unicode="T" horiz-adv-x="630" 
d="M290 0v638h-245v49h540v-49h-245v-638h-50z" />
    <glyph glyph-name="U" unicode="U" horiz-adv-x="718" 
d="M359 -12q-120 0 -196.5 79.5t-76.5 204.5v415h50v-415q0 -104 62.5 -170t160.5 -66t160.5 66t62.5 170v415h50v-415q0 -125 -76.5 -204.5t-196.5 -79.5z" />
    <glyph glyph-name="V" unicode="V" horiz-adv-x="725" 
d="M638 687h55l-303 -687h-55l-303 687h55l276 -625z" />
    <glyph glyph-name="W" unicode="W" horiz-adv-x="1049" 
d="M269 0l-232 687h55l204 -605l201 605h55l201 -605l204 605h55l-232 -687h-51l-204 614l-205 -614h-51z" />
    <glyph glyph-name="X" unicode="X" horiz-adv-x="664" 
d="M626 687l-263 -343l263 -344h-63l-231 303l-232 -303h-62l263 343l-263 344h63l231 -303l232 303h62z" />
    <glyph glyph-name="Y" unicode="Y" horiz-adv-x="645" 
d="M297 0v279l-279 408h63l242 -356l242 356h62l-279 -408v-279h-51z" />
    <glyph glyph-name="Z" unicode="Z" horiz-adv-x="626" 
d="M58 0v41l443 597h-436v49h501v-41l-443 -597h447v-49h-512z" />
    <glyph glyph-name="bracketleft" unicode="[" horiz-adv-x="356" 
d="M81 -115v849h226v-43h-180v-763h180v-43h-226z" />
    <glyph glyph-name="backslash" unicode="\" horiz-adv-x="384" 
d="M346 -74l-351 817h54l351 -817h-54z" />
    <glyph glyph-name="bracketright" unicode="]" horiz-adv-x="356" 
d="M49 -115v43h180v763h-180v43h226v-849h-226z" />
    <glyph glyph-name="asciicircum" unicode="^" horiz-adv-x="477" 
d="M54 413l161 274h47l161 -274h-51l-134 229l-133 -229h-51z" />
    <glyph glyph-name="underscore" unicode="_" horiz-adv-x="592" 
d="M-2 -132v46h596v-46h-596z" />
    <glyph glyph-name="grave" unicode="`" horiz-adv-x="303" 
d="M189 576l-126 131l54 12l123 -143h-51z" />
    <glyph glyph-name="a" unicode="a" horiz-adv-x="560" 
d="M281 529q95 0 148.5 -59t53.5 -155v-315h-49v83q-28 -45 -83.5 -70t-113.5 -25q-82 0 -134.5 46t-52.5 120q0 76 58 123.5t148 47.5q81 0 178 -34v24q0 70 -38 119.5t-120 49.5q-74 0 -156 -46l-20 41q93 50 181 50zM244 34q62 0 119 34t71 94v87q-93 31 -171 31
q-72 0 -118.5 -35t-46.5 -90q0 -53 42 -87t104 -34z" />
    <glyph glyph-name="b" unicode="b" horiz-adv-x="619" 
d="M331 529q97 0 165.5 -78.5t68.5 -191.5t-68.5 -192t-165.5 -79q-65 0 -117 31t-82 86v-105h-49v699h49v-286q30 55 82 85.5t117 30.5zM321 34q80 0 136.5 65.5t56.5 159.5q0 93 -56.5 158.5t-136.5 65.5q-83 0 -136 -63t-53 -161q0 -99 53 -162t136 -63z" />
    <glyph glyph-name="c" unicode="c" horiz-adv-x="529" 
d="M309 -12q-112 0 -186.5 77.5t-74.5 193.5t74.5 193t186.5 77q104 0 180 -76l-35 -34q-61 64 -145 64q-91 0 -151 -64t-60 -160q0 -97 60 -161t151 -64q84 0 147 65l34 -34q-75 -77 -181 -77z" />
    <glyph glyph-name="d" unicode="d" horiz-adv-x="619" 
d="M487 699h49v-699h-49v105q-30 -55 -82 -86t-117 -31q-97 0 -165.5 79t-68.5 192t68.5 191.5t165.5 78.5q65 0 117 -30.5t82 -85.5v286zM298 34q83 0 136 63t53 162q0 98 -53 161t-136 63q-80 0 -136.5 -65.5t-56.5 -158.5q0 -94 56.5 -159.5t136.5 -65.5z" />
    <glyph glyph-name="e" unicode="e" horiz-adv-x="595" 
d="M304 34q54 0 103.5 18t78.5 50l32 -34q-33 -36 -93 -58t-120 -22q-104 0 -180.5 79.5t-76.5 192.5q0 114 74 191.5t180 77.5q113 0 179.5 -79.5t66.5 -211.5h-450q8 -86 66.5 -145t139.5 -59zM303 483q-81 0 -139 -56.5t-66 -142.5h401q-5 89 -57.5 144t-138.5 55z" />
    <glyph glyph-name="f" unicode="f" horiz-adv-x="344" 
d="M174 588v-71h139v-46h-139v-471h-49v471h-88v46h88v71q0 58 31.5 95t80.5 37q55 0 96 -33l-25 -37q-27 24 -68 24q-29 0 -47.5 -24.5t-18.5 -61.5z" />
    <glyph glyph-name="g" unicode="g" horiz-adv-x="610" 
d="M478 517h49v-462q0 -100 -67.5 -163.5t-173.5 -63.5q-58 0 -115.5 19.5t-93.5 49.5l23 41q32 -29 82 -46.5t98 -17.5q89 0 143.5 50t54.5 131v106q-29 -59 -83.5 -91t-123.5 -32q-96 0 -163 71.5t-67 174.5t67 174t163 71q70 0 124 -31.5t83 -91.5v111zM281 84
q85 0 141 56.5t56 143.5q0 86 -56 142.5t-141 56.5q-79 0 -134 -58t-55 -141t55 -141.5t134 -58.5z" />
    <glyph glyph-name="h" unicode="h" 
d="M296 529q85 0 139 -54t54 -139v-336h-49v329q0 68 -42 111t-109 43q-70 0 -116.5 -44t-46.5 -109v-330h-49v699h49v-271q20 46 66 73.5t104 27.5z" />
    <glyph glyph-name="i" unicode="i" horiz-adv-x="199" 
d="M100 624q-16 0 -26.5 11t-10.5 26t10.5 25.5t26.5 10.5q14 0 25 -11t11 -25q0 -15 -11 -26t-25 -11zM75 0v517h49v-517h-49z" />
    <glyph glyph-name="j" unicode="j" horiz-adv-x="182" 
d="M92 624q-16 0 -26.5 11t-10.5 26t10.5 25.5t26.5 10.5q14 0 25 -11t11 -25q0 -15 -11 -26t-25 -11zM2 -178q-44 0 -81 16l9 43q32 -13 69 -13q30 0 48.5 22t18.5 57v570h49v-570q0 -55 -31.5 -90t-81.5 -35z" />
    <glyph glyph-name="k" unicode="k" horiz-adv-x="514" 
d="M500 517l-232 -237l220 -280h-62l-192 246l-110 -111v-135h-49v699h49v-498l311 316h65z" />
    <glyph glyph-name="l" unicode="l" horiz-adv-x="201" 
d="M76 0v699h49v-699h-49z" />
    <glyph glyph-name="m" unicode="m" horiz-adv-x="870" 
d="M616 529q79 0 128.5 -54t49.5 -139v-336h-49v329q0 68 -38 111t-97 43q-66 0 -108 -41t-42 -106v-336h-49v329q0 67 -38.5 110.5t-97.5 43.5q-66 0 -108 -41t-42 -106v-336h-49v517h49v-77q17 41 59 65t98 24q57 0 100 -30t63 -81q16 50 62.5 80.5t108.5 30.5z" />
    <glyph glyph-name="n" unicode="n" 
d="M296 529q85 0 139 -54t54 -139v-336h-49v329q0 68 -42 111t-109 43q-70 0 -116.5 -44t-46.5 -109v-330h-49v517h49v-89q20 46 66 73.5t104 27.5z" />
    <glyph glyph-name="o" unicode="o" horiz-adv-x="631" 
d="M316 -12q-109 0 -188.5 80.5t-79.5 190.5t79.5 190t188.5 80t188 -80t79 -190t-79 -190.5t-188 -80.5zM316 34q88 0 152.5 67t64.5 158t-64.5 157.5t-152.5 66.5t-153 -66.5t-65 -157.5t64.5 -158t153.5 -67z" />
    <glyph glyph-name="p" unicode="p" horiz-adv-x="619" 
d="M331 529q97 0 165.5 -78.5t68.5 -191.5t-68.5 -192t-165.5 -79q-65 0 -117 31t-82 86v-277h-49v689h49v-104q30 55 82 85.5t117 30.5zM321 34q80 0 136.5 65.5t56.5 159.5q0 93 -56.5 158.5t-136.5 65.5q-83 0 -136 -63t-53 -161q0 -99 53 -162t136 -63z" />
    <glyph glyph-name="q" unicode="q" horiz-adv-x="619" 
d="M487 517h49v-689h-49v277q-30 -55 -82 -86t-117 -31q-97 0 -165.5 79t-68.5 192t68.5 191.5t165.5 78.5q65 0 117 -30.5t82 -85.5v104zM298 34q83 0 136 63t53 162q0 98 -53 161t-136 63q-80 0 -136.5 -65.5t-56.5 -158.5q0 -94 56.5 -159.5t136.5 -65.5z" />
    <glyph glyph-name="r" unicode="r" horiz-adv-x="360" 
d="M132 404q20 55 74.5 90t125.5 35v-46q-88 0 -144 -54.5t-56 -139.5v-289h-49v517h49v-113z" />
    <glyph glyph-name="s" unicode="s" horiz-adv-x="489" 
d="M259 -12q-118 0 -214 77l28 37q93 -68 186 -68q56 0 94.5 26.5t38.5 64.5q0 42 -34 68t-109 48q-93 29 -132.5 63t-39.5 86q0 59 50.5 99t123.5 40q95 0 185 -58l-27 -38q-78 50 -158 50q-52 0 -88.5 -25t-36.5 -62t33.5 -61.5t113.5 -49.5q87 -27 127.5 -61.5
t40.5 -92.5q0 -60 -53 -101.5t-129 -41.5z" />
    <glyph glyph-name="t" unicode="t" horiz-adv-x="363" 
d="M308 59l25 -38q-42 -33 -96 -33q-49 0 -80.5 37t-31.5 95v351h-88v46h88v142h49v-142h133v-46h-133v-351q0 -37 18.5 -61.5t47.5 -24.5q38 0 68 25z" />
    <glyph glyph-name="u" unicode="u" 
d="M439 517h49v-517h-49v89q-20 -46 -66 -73.5t-104 -27.5q-85 0 -139 54t-54 139v336h49v-329q0 -68 42 -111t109 -43q70 0 116.5 44t46.5 109v330z" />
    <glyph glyph-name="v" unicode="v" horiz-adv-x="554" 
d="M258 0l-231 517h54l197 -447l195 447h54l-230 -517h-39z" />
    <glyph glyph-name="w" unicode="w" horiz-adv-x="806" 
d="M205 0l-170 517h51l147 -452l150 452h42l151 -452l146 452h51l-171 -517h-54l-144 438l-145 -438h-54z" />
    <glyph glyph-name="x" unicode="x" horiz-adv-x="522" 
d="M490 0h-59l-170 225l-170 -225h-59l200 264l-192 253h59l162 -214l162 214h59l-191 -253z" />
    <glyph glyph-name="y" unicode="y" horiz-adv-x="576" 
d="M136 -180q-46 0 -82 17l12 46q35 -16 69 -16q65 0 93 48l30 70l-228 532h54l200 -471l192 471h53l-241 -587q-45 -109 -152 -110z" />
    <glyph glyph-name="z" unicode="z" horiz-adv-x="514" 
d="M54 0v40l341 429h-335v48h400v-40l-341 -429h343v-48h-408z" />
    <glyph glyph-name="braceleft" unicode="{" horiz-adv-x="393" 
d="M342 -166q-104 12 -147.5 51t-43.5 118v141q0 54 -25 77.5t-83 23.5v42q58 0 83 23.5t25 77.5v140q0 79 43.5 118t147.5 51l5 -41q-85 -10 -118 -39.5t-33 -92.5l1 -144q0 -49 -17 -76t-55 -38q38 -12 55 -39t17 -76l-1 -143q0 -64 33 -93.5t118 -39.5z" />
    <glyph glyph-name="bar" unicode="|" horiz-adv-x="262" 
d="M109 -74v817h44v-817h-44z" />
    <glyph glyph-name="braceright" unicode="}" horiz-adv-x="393" 
d="M51 -166l-5 41q85 10 118 39.5t33 93.5l-1 143q0 49 16.5 76t54.5 39q-37 11 -54 38t-17 76l1 144q0 63 -33 92.5t-118 39.5l5 41q104 -12 147.5 -51t43.5 -118v-140q0 -54 25 -77.5t83 -23.5v-42q-58 0 -83 -23.5t-25 -77.5v-141q0 -79 -43.5 -118t-147.5 -51z" />
    <glyph glyph-name="asciitilde" unicode="~" horiz-adv-x="449" 
d="M289 307q-32 0 -71.5 33t-57.5 33q-41 0 -53 -75l-40 7q8 54 32 83t61 29q32 0 71.5 -33t57.5 -33q41 0 53 75l40 -7q-16 -112 -93 -112z" />
    <glyph glyph-name="exclamdown" unicode="&#xa1;" horiz-adv-x="241" 
d="M119 529q16 0 27.5 -11.5t11.5 -27.5q0 -15 -11.5 -26t-27.5 -11q-15 0 -26 11.5t-11 25.5q0 16 11 27.5t26 11.5zM140 324l7 -494h-55l7 494h41z" />
    <glyph glyph-name="cent" unicode="&#xa2;" horiz-adv-x="529" 
d="M490 65q-71 -72 -169 -77v-62h-50v65q-98 13 -160.5 87.5t-62.5 180.5q0 105 62.5 179.5t160.5 87.5v63h50v-60q97 -5 168 -76l-35 -34q-55 58 -133 64v-449q78 6 135 65zM98 259q0 -86 48.5 -147t124.5 -75v443q-76 -14 -124.5 -75t-48.5 -146z" />
    <glyph glyph-name="sterling" unicode="&#xa3;" horiz-adv-x="586" 
d="M157 49h383v-49h-485v25l52 24v223h-51v46h51v145q0 104 59 170t151 66q70 0 125 -32t81 -86l-35 -33q-20 48 -66 75.5t-105 27.5q-70 0 -115 -52.5t-45 -135.5v-145h210v-46h-210v-223z" />
    <glyph glyph-name="yen" unicode="&#xa5;" horiz-adv-x="645" 
d="M627 687l-252 -368h182v-46h-209v-101h209v-46h-209v-126h-51v126h-209v46h209v101h-209v46h182l-252 368h63l242 -356l242 356h62z" />
    <glyph glyph-name="dieresis" unicode="&#xa8;" horiz-adv-x="410" 
d="M109 608q-15 0 -25 10.5t-10 24.5t10 24.5t25 10.5q14 0 24.5 -10.5t10.5 -24.5t-10.5 -24.5t-24.5 -10.5zM301 608q-15 0 -25 10.5t-10 24.5t10 24.5t25 10.5q14 0 24.5 -10.5t10.5 -24.5t-10.5 -24.5t-24.5 -10.5z" />
    <glyph glyph-name="macron" unicode="&#xaf;" horiz-adv-x="436" 
d="M63 600v42h310v-42h-310z" />
    <glyph glyph-name="acute" unicode="&#xb4;" horiz-adv-x="303" 
d="M63 576l124 143l53 -12l-126 -131h-51z" />
    <glyph glyph-name="cedilla" unicode="&#xb8;" horiz-adv-x="303" 
d="M173 -45q30 0 48.5 -18t18.5 -47q0 -34 -27.5 -58t-66.5 -24q-45 0 -83 28l16 36q30 -24 66 -24q22 0 38 13t16 31q0 15 -11 25t-30 10t-34 -11l-16 17l33 78h43l-24 -57q4 1 13 1z" />
    <glyph glyph-name="questiondown" unicode="&#xbf;" horiz-adv-x="493" 
d="M268 529q16 0 27.5 -11.5t11.5 -27.5q0 -15 -11.5 -26t-27.5 -11q-15 0 -26 11.5t-11 25.5q0 16 11 27.5t26 11.5zM294 324v-171q-87 -7 -143.5 -48.5t-56.5 -97.5q0 -58 43.5 -99.5t105.5 -41.5q114 0 189 101l34 -34q-93 -115 -225 -115q-83 0 -140 54t-57 130
q0 68 56 121t144 70v131h50z" />
    <glyph glyph-name="Agrave" unicode="&#xc0;" horiz-adv-x="725" 
d="M390 746h-51l-126 131l54 12zM638 0l-75 169h-401l-75 -169h-55l303 687h55l303 -687h-55zM183 217h359l-179 408z" />
    <glyph glyph-name="Aacute" unicode="&#xc1;" horiz-adv-x="725" 
d="M513 877l-126 -131h-51l124 143zM638 0l-75 169h-401l-75 -169h-55l303 687h55l303 -687h-55zM183 217h359l-179 408z" />
    <glyph glyph-name="Acircumflex" unicode="&#xc2;" horiz-adv-x="725" 
d="M362 845l-82 -99h-48l104 137h53l106 -137h-49zM638 0l-75 169h-401l-75 -169h-55l303 687h55l303 -687h-55zM183 217h359l-179 408z" />
    <glyph glyph-name="Atilde" unicode="&#xc3;" horiz-adv-x="725" 
d="M297 818q-41 0 -53 -75l-40 7q8 54 32 83t61 29q32 0 71.5 -33t57.5 -33q41 0 53 75l40 -7q-16 -112 -93 -112q-32 0 -71.5 33t-57.5 33zM638 0l-75 169h-401l-75 -169h-55l303 687h55l303 -687h-55zM183 217h359l-179 408z" />
    <glyph glyph-name="Adieresis" unicode="&#xc4;" horiz-adv-x="725" 
d="M266 778q-15 0 -25 10.5t-10 24.5t10 24.5t25 10.5q14 0 24.5 -10.5t10.5 -24.5t-10.5 -24.5t-24.5 -10.5zM458 778q-15 0 -25 10.5t-10 24.5t10 24.5t25 10.5q14 0 24.5 -10.5t10.5 -24.5t-10.5 -24.5t-24.5 -10.5zM638 0l-75 169h-401l-75 -169h-55l303 687h55
l303 -687h-55zM183 217h359l-179 408z" />
    <glyph glyph-name="Aring" unicode="&#xc5;" horiz-adv-x="725" 
d="M362 759q-42 0 -72.5 30.5t-30.5 72.5t30.5 72.5t72.5 30.5t72.5 -30.5t30.5 -72.5t-30.5 -72.5t-72.5 -30.5zM362 928q-26 0 -46 -20t-20 -46t20 -46t46 -20t46 20t20 46t-20 46t-46 20zM638 0l-75 169h-401l-75 -169h-55l303 687h55l303 -687h-55zM183 217h359
l-179 408z" />
    <glyph glyph-name="AE" unicode="&#xc6;" horiz-adv-x="978" 
d="M923 638h-415v-264h381v-48h-381v-277h415v-49h-465v169h-271l-97 -169h-58l397 687h494v-49zM215 217h243v421z" />
    <glyph glyph-name="Ccedilla" unicode="&#xc7;" horiz-adv-x="680" 
d="M651 93q-98 -98 -229 -104l-14 -35q4 1 13 1q30 0 48.5 -18t18.5 -47q0 -34 -27.5 -58t-66.5 -24q-45 0 -83 28l16 36q30 -24 66 -24q22 0 38 13t16 31q0 15 -11 25t-30 10t-34 -11l-16 17l24 56q-136 10 -232 113.5t-96 241.5q0 145 104.5 250t247.5 105q144 0 247 -105
l-35 -35q-89 92 -212 92t-212.5 -91t-89.5 -216t89.5 -216.5t212.5 -91.5t212 92z" />
    <glyph glyph-name="Egrave" unicode="&#xc8;" horiz-adv-x="599" 
d="M383 746h-51l-126 131l54 12zM544 638h-415v-264h381v-48h-381v-277h415v-49h-465v687h465v-49z" />
    <glyph glyph-name="Eacute" unicode="&#xc9;" horiz-adv-x="599" 
d="M414 877l-126 -131h-51l124 143zM544 638h-415v-264h381v-48h-381v-277h415v-49h-465v687h465v-49z" />
    <glyph glyph-name="Ecircumflex" unicode="&#xca;" horiz-adv-x="599" 
d="M312 845l-82 -99h-48l104 137h53l106 -137h-49zM544 638h-415v-264h381v-48h-381v-277h415v-49h-465v687h465v-49z" />
    <glyph glyph-name="Edieresis" unicode="&#xcb;" horiz-adv-x="599" 
d="M216 778q-15 0 -25 10.5t-10 24.5t10 24.5t25 10.5q14 0 24.5 -10.5t10.5 -24.5t-10.5 -24.5t-24.5 -10.5zM408 778q-15 0 -25 10.5t-10 24.5t10 24.5t25 10.5q14 0 24.5 -10.5t10.5 -24.5t-10.5 -24.5t-24.5 -10.5zM544 638h-415v-264h381v-48h-381v-277h415v-49h-465
v687h465v-49z" />
    <glyph glyph-name="Igrave" unicode="&#xcc;" horiz-adv-x="208" 
d="M79 746l-126 131l54 12l123 -143h-51zM79 0v687h50v-687h-50z" />
    <glyph glyph-name="Iacute" unicode="&#xcd;" horiz-adv-x="208" 
d="M77 746l124 143l53 -12l-126 -131h-51zM79 0v687h50v-687h-50z" />
    <glyph glyph-name="Icircumflex" unicode="&#xce;" horiz-adv-x="208" 
d="M-26 746l104 137h53l106 -137h-49l-84 99l-82 -99h-48zM79 0v687h50v-687h-50z" />
    <glyph glyph-name="Idieresis" unicode="&#xcf;" horiz-adv-x="208" 
d="M8 778q-15 0 -25 10.5t-10 24.5t10 24.5t25 10.5q14 0 24.5 -10.5t10.5 -24.5t-10.5 -24.5t-24.5 -10.5zM200 778q-15 0 -25 10.5t-10 24.5t10 24.5t25 10.5q14 0 24.5 -10.5t10.5 -24.5t-10.5 -24.5t-24.5 -10.5zM79 0v687h50v-687h-50z" />
    <glyph glyph-name="Eth" unicode="&#xd0;" horiz-adv-x="778" 
d="M355 687q158 0 258.5 -96t100.5 -247t-101 -247.5t-258 -96.5h-234v326h-79v48h79v313h234zM355 48q136 0 222 83t86 213t-86 212.5t-222 82.5h-184v-265h220l-1 -48h-219v-278h184z" />
    <glyph glyph-name="Ntilde" unicode="&#xd1;" horiz-adv-x="742" 
d="M435 752q-32 0 -71.5 33t-57.5 33q-41 0 -53 -75l-40 7q8 54 32 83t61 29q32 0 71.5 -33t57.5 -33q41 0 53 75l40 -7q-16 -112 -93 -112zM94 0v687h50l454 -607v607h50v-687h-50l-454 607v-607h-50z" />
    <glyph glyph-name="Ograve" unicode="&#xd2;" horiz-adv-x="807" 
d="M381 746l-126 131l54 12l123 -143h-51zM404 -12q-143 0 -247.5 105.5t-104.5 250.5t104.5 250t247.5 105t247 -105t104 -250t-104 -250.5t-247 -105.5zM404 36q122 0 211.5 91.5t89.5 216.5t-89.5 216t-211.5 91q-123 0 -212.5 -91t-89.5 -216t89.5 -216.5t212.5 -91.5z
" />
    <glyph glyph-name="Oacute" unicode="&#xd3;" horiz-adv-x="807" 
d="M377 746l124 143l53 -12l-126 -131h-51zM404 -12q-143 0 -247.5 105.5t-104.5 250.5t104.5 250t247.5 105t247 -105t104 -250t-104 -250.5t-247 -105.5zM404 36q122 0 211.5 91.5t89.5 216.5t-89.5 216t-211.5 91q-123 0 -212.5 -91t-89.5 -216t89.5 -216.5t212.5 -91.5z
" />
    <glyph glyph-name="Ocircumflex" unicode="&#xd4;" horiz-adv-x="807" 
d="M274 746l104 137h53l106 -137h-49l-84 99l-82 -99h-48zM404 -12q-143 0 -247.5 105.5t-104.5 250.5t104.5 250t247.5 105t247 -105t104 -250t-104 -250.5t-247 -105.5zM404 36q122 0 211.5 91.5t89.5 216.5t-89.5 216t-211.5 91q-123 0 -212.5 -91t-89.5 -216
t89.5 -216.5t212.5 -91.5z" />
    <glyph glyph-name="Otilde" unicode="&#xd5;" horiz-adv-x="807" 
d="M468 752q-32 0 -71.5 33t-57.5 33q-41 0 -53 -75l-40 7q8 54 32 83t61 29q32 0 71.5 -33t57.5 -33q41 0 53 75l40 -7q-16 -112 -93 -112zM404 -12q-143 0 -247.5 105.5t-104.5 250.5t104.5 250t247.5 105t247 -105t104 -250t-104 -250.5t-247 -105.5zM404 36
q122 0 211.5 91.5t89.5 216.5t-89.5 216t-211.5 91q-123 0 -212.5 -91t-89.5 -216t89.5 -216.5t212.5 -91.5z" />
    <glyph glyph-name="Odieresis" unicode="&#xd6;" horiz-adv-x="807" 
d="M308 778q-15 0 -25 10.5t-10 24.5t10 24.5t25 10.5q14 0 24.5 -10.5t10.5 -24.5t-10.5 -24.5t-24.5 -10.5zM500 778q-15 0 -25 10.5t-10 24.5t10 24.5t25 10.5q14 0 24.5 -10.5t10.5 -24.5t-10.5 -24.5t-24.5 -10.5zM404 -12q-143 0 -247.5 105.5t-104.5 250.5t104.5 250
t247.5 105t247 -105t104 -250t-104 -250.5t-247 -105.5zM404 36q122 0 211.5 91.5t89.5 216.5t-89.5 216t-211.5 91q-123 0 -212.5 -91t-89.5 -216t89.5 -216.5t212.5 -91.5z" />
    <glyph glyph-name="multiply" unicode="&#xd7;" horiz-adv-x="524" 
d="M442 479l-145 -145l144 -144l-34 -35l-145 145l-145 -145l-34 34l145 145l-146 145l35 35l145 -145l145 145z" />
    <glyph glyph-name="Oslash" unicode="&#xd8;" horiz-adv-x="807" 
d="M652 593q103 -105 103 -249q0 -145 -104 -250.5t-247 -105.5q-119 0 -214 76l-56 -64h-60l82 94q-104 106 -104 250q0 145 104.5 250t247.5 105q118 0 215 -76l56 64h60zM102 344q0 -124 86 -213l399 455q-81 65 -183 65q-123 0 -212.5 -91t-89.5 -216zM404 36
q122 0 211.5 91.5t89.5 216.5q0 121 -85 211l-398 -455q82 -64 182 -64z" />
    <glyph glyph-name="Ugrave" unicode="&#xd9;" horiz-adv-x="718" 
d="M379 746l-126 131l54 12l123 -143h-51zM359 -12q-120 0 -196.5 79.5t-76.5 204.5v415h50v-415q0 -104 62.5 -170t160.5 -66t160.5 66t62.5 170v415h50v-415q0 -125 -76.5 -204.5t-196.5 -79.5z" />
    <glyph glyph-name="Uacute" unicode="&#xda;" horiz-adv-x="718" 
d="M284 746l124 143l53 -12l-126 -131h-51zM359 -12q-120 0 -196.5 79.5t-76.5 204.5v415h50v-415q0 -104 62.5 -170t160.5 -66t160.5 66t62.5 170v415h50v-415q0 -125 -76.5 -204.5t-196.5 -79.5z" />
    <glyph glyph-name="Ucircumflex" unicode="&#xdb;" horiz-adv-x="718" 
d="M229 746l104 137h53l106 -137h-49l-84 99l-82 -99h-48zM359 -12q-120 0 -196.5 79.5t-76.5 204.5v415h50v-415q0 -104 62.5 -170t160.5 -66t160.5 66t62.5 170v415h50v-415q0 -125 -76.5 -204.5t-196.5 -79.5z" />
    <glyph glyph-name="Udieresis" unicode="&#xdc;" horiz-adv-x="718" 
d="M263 778q-15 0 -25 10.5t-10 24.5t10 24.5t25 10.5q14 0 24.5 -10.5t10.5 -24.5t-10.5 -24.5t-24.5 -10.5zM455 778q-15 0 -25 10.5t-10 24.5t10 24.5t25 10.5q14 0 24.5 -10.5t10.5 -24.5t-10.5 -24.5t-24.5 -10.5zM359 -12q-120 0 -196.5 79.5t-76.5 204.5v415h50v-415
q0 -104 62.5 -170t160.5 -66t160.5 66t62.5 170v415h50v-415q0 -125 -76.5 -204.5t-196.5 -79.5z" />
    <glyph glyph-name="Yacute" unicode="&#xdd;" horiz-adv-x="645" 
d="M248 746l124 143l53 -12l-126 -131h-51zM297 0v279l-279 408h63l242 -356l242 356h62l-279 -408v-279h-51z" />
    <glyph glyph-name="Thorn" unicode="&#xde;" horiz-adv-x="641" 
d="M79 0v687h51v-128h235q105 0 174 -60t69 -153t-69 -153t-174 -60h-236v-133h-50zM129 181h226q90 0 146 45.5t56 119.5t-56 119.5t-146 45.5h-226v-330z" />
    <glyph glyph-name="germandbls" unicode="&#xdf;" horiz-adv-x="548" 
d="M84 0v524q0 77 56.5 130t138.5 53t138 -53t56 -129q0 -53 -24.5 -96t-66.5 -64q54 -25 86 -72.5t32 -102.5q0 -80 -55 -135t-135 -55h-94v48h74q67 0 113.5 43.5t46.5 105.5t-45.5 101t-116.5 39h-72v48h64q62 0 102.5 38t40.5 95q0 59 -42 100t-102 41q-61 0 -103 -41.5
t-42 -101.5v-516h-50z" />
    <glyph glyph-name="agrave" unicode="&#xe0;" horiz-adv-x="560" 
d="M361 576h-51l-126 131l54 12zM281 529q95 0 148.5 -59t53.5 -155v-315h-49v83q-28 -45 -83.5 -70t-113.5 -25q-82 0 -134.5 46t-52.5 120q0 76 58 123.5t148 47.5q81 0 178 -34v24q0 70 -38 119.5t-120 49.5q-74 0 -156 -46l-20 41q93 50 181 50zM244 34q62 0 119 34
t71 94v87q-93 31 -171 31q-72 0 -118.5 -35t-46.5 -90q0 -53 42 -87t104 -34z" />
    <glyph glyph-name="aacute" unicode="&#xe1;" horiz-adv-x="560" 
d="M392 707l-126 -131h-51l124 143zM281 529q95 0 148.5 -59t53.5 -155v-315h-49v83q-28 -45 -83.5 -70t-113.5 -25q-82 0 -134.5 46t-52.5 120q0 76 58 123.5t148 47.5q81 0 178 -34v24q0 70 -38 119.5t-120 49.5q-74 0 -156 -46l-20 41q93 50 181 50zM244 34q62 0 119 34
t71 94v87q-93 31 -171 31q-72 0 -118.5 -35t-46.5 -90q0 -53 42 -87t104 -34z" />
    <glyph glyph-name="acircumflex" unicode="&#xe2;" horiz-adv-x="560" 
d="M290 675l-82 -99h-48l104 137h53l106 -137h-49zM281 529q95 0 148.5 -59t53.5 -155v-315h-49v83q-28 -45 -83.5 -70t-113.5 -25q-82 0 -134.5 46t-52.5 120q0 76 58 123.5t148 47.5q81 0 178 -34v24q0 70 -38 119.5t-120 49.5q-74 0 -156 -46l-20 41q93 50 181 50z
M244 34q62 0 119 34t71 94v87q-93 31 -171 31q-72 0 -118.5 -35t-46.5 -90q0 -53 42 -87t104 -34z" />
    <glyph glyph-name="atilde" unicode="&#xe3;" horiz-adv-x="560" 
d="M225 648q-41 0 -53 -75l-40 7q8 54 32 83t61 29q32 0 71.5 -33t57.5 -33q41 0 53 75l40 -7q-16 -112 -93 -112q-32 0 -71.5 33t-57.5 33zM281 529q95 0 148.5 -59t53.5 -155v-315h-49v83q-28 -45 -83.5 -70t-113.5 -25q-82 0 -134.5 46t-52.5 120q0 76 58 123.5t148 47.5
q81 0 178 -34v24q0 70 -38 119.5t-120 49.5q-74 0 -156 -46l-20 41q93 50 181 50zM244 34q62 0 119 34t71 94v87q-93 31 -171 31q-72 0 -118.5 -35t-46.5 -90q0 -53 42 -87t104 -34z" />
    <glyph glyph-name="adieresis" unicode="&#xe4;" horiz-adv-x="560" 
d="M194 608q-15 0 -25 10.5t-10 24.5t10 24.5t25 10.5q14 0 24.5 -10.5t10.5 -24.5t-10.5 -24.5t-24.5 -10.5zM386 608q-15 0 -25 10.5t-10 24.5t10 24.5t25 10.5q14 0 24.5 -10.5t10.5 -24.5t-10.5 -24.5t-24.5 -10.5zM281 529q95 0 148.5 -59t53.5 -155v-315h-49v83
q-28 -45 -83.5 -70t-113.5 -25q-82 0 -134.5 46t-52.5 120q0 76 58 123.5t148 47.5q81 0 178 -34v24q0 70 -38 119.5t-120 49.5q-74 0 -156 -46l-20 41q93 50 181 50zM244 34q62 0 119 34t71 94v87q-93 31 -171 31q-72 0 -118.5 -35t-46.5 -90q0 -53 42 -87t104 -34z" />
    <glyph glyph-name="aring" unicode="&#xe5;" horiz-adv-x="560" 
d="M290 589q-42 0 -72.5 30.5t-30.5 72.5t30.5 72.5t72.5 30.5t72.5 -30.5t30.5 -72.5t-30.5 -72.5t-72.5 -30.5zM290 758q-26 0 -46 -20t-20 -46t20 -46t46 -20t46 20t20 46t-20 46t-46 20zM281 529q95 0 148.5 -59t53.5 -155v-315h-49v83q-28 -45 -83.5 -70t-113.5 -25
q-82 0 -134.5 46t-52.5 120q0 76 58 123.5t148 47.5q81 0 178 -34v24q0 70 -38 119.5t-120 49.5q-74 0 -156 -46l-20 41q93 50 181 50zM244 34q62 0 119 34t71 94v87q-93 31 -171 31q-72 0 -118.5 -35t-46.5 -90q0 -53 42 -87t104 -34z" />
    <glyph glyph-name="ae" unicode="&#xe6;" horiz-adv-x="981" 
d="M690 34q54 0 103.5 18t78.5 50l32 -34q-33 -36 -93 -58t-120 -22q-70 0 -130.5 38t-93.5 102q-26 -64 -85 -102t-135 -38q-89 0 -143 45.5t-54 120.5q0 76 58 123.5t148 47.5q81 0 178 -34v24q0 70 -38 119.5t-120 49.5q-74 0 -156 -46l-20 41q93 50 181 50
q71 0 120 -34.5t69 -94.5q33 59 91 94t127 35q113 0 179.5 -79.5t66.5 -211.5h-450q8 -86 66.5 -145t139.5 -59zM689 483q-81 0 -139 -56.5t-66 -142.5h401q-5 89 -57.5 144t-138.5 55zM254 34q77 0 128.5 51t51.5 127v37q-93 31 -171 31q-72 0 -118.5 -35t-46.5 -90
q0 -54 43 -87.5t113 -33.5z" />
    <glyph glyph-name="ccedilla" unicode="&#xe7;" horiz-adv-x="529" 
d="M490 65q-69 -71 -168 -77l-14 -34q4 1 13 1q30 0 48.5 -18t18.5 -47q0 -34 -27.5 -58t-66.5 -24q-45 0 -83 28l16 36q30 -24 66 -24q22 0 38 13t16 31q0 15 -11 25t-30 10t-34 -11l-16 17l24 57q-101 11 -166.5 86t-65.5 183q0 116 74.5 193t186.5 77q104 0 180 -76
l-35 -34q-61 64 -145 64q-91 0 -151 -64t-60 -160q0 -97 60 -161t151 -64q84 0 147 65z" />
    <glyph glyph-name="egrave" unicode="&#xe8;" horiz-adv-x="595" 
d="M373 576h-51l-126 131l54 12zM304 34q54 0 103.5 18t78.5 50l32 -34q-33 -36 -93 -58t-120 -22q-104 0 -180.5 79.5t-76.5 192.5q0 114 74 191.5t180 77.5q113 0 179.5 -79.5t66.5 -211.5h-450q8 -86 66.5 -145t139.5 -59zM303 483q-81 0 -139 -56.5t-66 -142.5h401
q-5 89 -57.5 144t-138.5 55z" />
    <glyph glyph-name="eacute" unicode="&#xe9;" horiz-adv-x="595" 
d="M404 707l-126 -131h-51l124 143zM304 34q54 0 103.5 18t78.5 50l32 -34q-33 -36 -93 -58t-120 -22q-104 0 -180.5 79.5t-76.5 192.5q0 114 74 191.5t180 77.5q113 0 179.5 -79.5t66.5 -211.5h-450q8 -86 66.5 -145t139.5 -59zM303 483q-81 0 -139 -56.5t-66 -142.5h401
q-5 89 -57.5 144t-138.5 55z" />
    <glyph glyph-name="ecircumflex" unicode="&#xea;" horiz-adv-x="595" 
d="M302 675l-82 -99h-48l104 137h53l106 -137h-49zM304 34q54 0 103.5 18t78.5 50l32 -34q-33 -36 -93 -58t-120 -22q-104 0 -180.5 79.5t-76.5 192.5q0 114 74 191.5t180 77.5q113 0 179.5 -79.5t66.5 -211.5h-450q8 -86 66.5 -145t139.5 -59zM303 483q-81 0 -139 -56.5
t-66 -142.5h401q-5 89 -57.5 144t-138.5 55z" />
    <glyph glyph-name="edieresis" unicode="&#xeb;" horiz-adv-x="595" 
d="M206 608q-15 0 -25 10.5t-10 24.5t10 24.5t25 10.5q14 0 24.5 -10.5t10.5 -24.5t-10.5 -24.5t-24.5 -10.5zM398 608q-15 0 -25 10.5t-10 24.5t10 24.5t25 10.5q14 0 24.5 -10.5t10.5 -24.5t-10.5 -24.5t-24.5 -10.5zM304 34q54 0 103.5 18t78.5 50l32 -34
q-33 -36 -93 -58t-120 -22q-104 0 -180.5 79.5t-76.5 192.5q0 114 74 191.5t180 77.5q113 0 179.5 -79.5t66.5 -211.5h-450q8 -86 66.5 -145t139.5 -59zM303 483q-81 0 -139 -56.5t-66 -142.5h401q-5 89 -57.5 144t-138.5 55z" />
    <glyph glyph-name="igrave" unicode="&#xec;" horiz-adv-x="199" 
d="M75 576l-126 131l54 12l123 -143h-51zM75 0v517h49v-517h-49z" />
    <glyph glyph-name="iacute" unicode="&#xed;" horiz-adv-x="199" 
d="M72 576l124 143l53 -12l-126 -131h-51zM75 0v517h49v-517h-49z" />
    <glyph glyph-name="icircumflex" unicode="&#xee;" horiz-adv-x="199" 
d="M-30 576l104 137h53l106 -137h-49l-84 99l-82 -99h-48zM75 0v517h49v-517h-49z" />
    <glyph glyph-name="idieresis" unicode="&#xef;" horiz-adv-x="199" 
d="M4 608q-15 0 -25 10.5t-10 24.5t10 24.5t25 10.5q14 0 24.5 -10.5t10.5 -24.5t-10.5 -24.5t-24.5 -10.5zM196 608q-15 0 -25 10.5t-10 24.5t10 24.5t25 10.5q14 0 24.5 -10.5t10.5 -24.5t-10.5 -24.5t-24.5 -10.5zM75 0v517h49v-517h-49z" />
    <glyph glyph-name="eth" unicode="&#xf0;" horiz-adv-x="616" 
d="M371 614q185 -168 185 -354q0 -119 -69 -195.5t-178 -76.5q-110 0 -179.5 72.5t-69.5 186.5q0 112 68 183t174 71q108 0 174 -86q-49 93 -150 179l-125 -56l-19 43l104 46q-49 37 -93 65l48 22q48 -32 90 -66l97 43l19 -43zM308 35q87 0 142.5 59.5t55.5 153.5
q0 90 -54.5 148.5t-143.5 58.5q-87 0 -142.5 -58.5t-55.5 -150.5q0 -93 55.5 -152t142.5 -59z" />
    <glyph glyph-name="ntilde" unicode="&#xf1;" 
d="M222 648q-41 0 -53 -75l-40 7q8 54 32 83t61 29q32 0 71.5 -33t57.5 -33q41 0 53 75l40 -7q-16 -112 -93 -112q-32 0 -71.5 33t-57.5 33zM296 529q85 0 139 -54t54 -139v-336h-49v329q0 68 -42 111t-109 43q-70 0 -116.5 -44t-46.5 -109v-330h-49v517h49v-89
q20 46 66 73.5t104 27.5z" />
    <glyph glyph-name="ograve" unicode="&#xf2;" horiz-adv-x="631" 
d="M336 576l-126 131l54 12l123 -143h-51zM316 -12q-109 0 -188.5 80.5t-79.5 190.5t79.5 190t188.5 80t188 -80t79 -190t-79 -190.5t-188 -80.5zM316 34q88 0 152.5 67t64.5 158t-64.5 157.5t-152.5 66.5t-153 -66.5t-65 -157.5t64.5 -158t153.5 -67z" />
    <glyph glyph-name="oacute" unicode="&#xf3;" horiz-adv-x="631" 
d="M241 576l124 143l53 -12l-126 -131h-51zM316 -12q-109 0 -188.5 80.5t-79.5 190.5t79.5 190t188.5 80t188 -80t79 -190t-79 -190.5t-188 -80.5zM316 34q88 0 152.5 67t64.5 158t-64.5 157.5t-152.5 66.5t-153 -66.5t-65 -157.5t64.5 -158t153.5 -67z" />
    <glyph glyph-name="ocircumflex" unicode="&#xf4;" horiz-adv-x="631" 
d="M186 576l104 137h53l106 -137h-49l-84 99l-82 -99h-48zM316 -12q-109 0 -188.5 80.5t-79.5 190.5t79.5 190t188.5 80t188 -80t79 -190t-79 -190.5t-188 -80.5zM316 34q88 0 152.5 67t64.5 158t-64.5 157.5t-152.5 66.5t-153 -66.5t-65 -157.5t64.5 -158t153.5 -67z" />
    <glyph glyph-name="otilde" unicode="&#xf5;" horiz-adv-x="631" 
d="M380 582q-32 0 -71.5 33t-57.5 33q-41 0 -53 -75l-40 7q8 54 32 83t61 29q32 0 71.5 -33t57.5 -33q41 0 53 75l40 -7q-16 -112 -93 -112zM316 -12q-109 0 -188.5 80.5t-79.5 190.5t79.5 190t188.5 80t188 -80t79 -190t-79 -190.5t-188 -80.5zM316 34q88 0 152.5 67
t64.5 158t-64.5 157.5t-152.5 66.5t-153 -66.5t-65 -157.5t64.5 -158t153.5 -67z" />
    <glyph glyph-name="odieresis" unicode="&#xf6;" horiz-adv-x="631" 
d="M220 608q-15 0 -25 10.5t-10 24.5t10 24.5t25 10.5q14 0 24.5 -10.5t10.5 -24.5t-10.5 -24.5t-24.5 -10.5zM412 608q-15 0 -25 10.5t-10 24.5t10 24.5t25 10.5q14 0 24.5 -10.5t10.5 -24.5t-10.5 -24.5t-24.5 -10.5zM316 -12q-109 0 -188.5 80.5t-79.5 190.5t79.5 190
t188.5 80t188 -80t79 -190t-79 -190.5t-188 -80.5zM316 34q88 0 152.5 67t64.5 158t-64.5 157.5t-152.5 66.5t-153 -66.5t-65 -157.5t64.5 -158t153.5 -67z" />
    <glyph glyph-name="divide" unicode="&#xf7;" horiz-adv-x="593" 
d="M298 458q-16 0 -27.5 11.5t-11.5 27.5q0 15 11.5 26t27.5 11q15 0 26 -11.5t11 -25.5q0 -16 -11 -27.5t-26 -11.5zM67 310v48h459v-48h-459zM298 134q-16 0 -27.5 11.5t-11.5 27.5q0 15 11.5 26t27.5 11q15 0 26 -11.5t11 -25.5q0 -16 -11 -27.5t-26 -11.5z" />
    <glyph glyph-name="oslash" unicode="&#xf8;" horiz-adv-x="631" 
d="M507 446q76 -79 76 -187q0 -110 -79 -190.5t-188 -80.5q-86 0 -155 52l-34 -40h-60l59 70q-78 80 -78 189q0 110 79.5 190t188.5 80q86 0 157 -53l35 41h60zM98 259q0 -87 60 -153l284 334q-57 43 -126 43q-88 0 -153 -66.5t-65 -157.5zM316 34q88 0 152.5 67t64.5 158
q0 85 -57 150l-284 -333q57 -42 124 -42z" />
    <glyph glyph-name="ugrave" unicode="&#xf9;" 
d="M353 576h-51l-126 131l54 12zM439 517h49v-517h-49v89q-20 -46 -66 -73.5t-104 -27.5q-85 0 -139 54t-54 139v336h49v-329q0 -68 42 -111t109 -43q70 0 116.5 44t46.5 109v330z" />
    <glyph glyph-name="uacute" unicode="&#xfa;" 
d="M384 707l-126 -131h-51l124 143zM439 517h49v-517h-49v89q-20 -46 -66 -73.5t-104 -27.5q-85 0 -139 54t-54 139v336h49v-329q0 -68 42 -111t109 -43q70 0 116.5 44t46.5 109v330z" />
    <glyph glyph-name="ucircumflex" unicode="&#xfb;" 
d="M282 675l-82 -99h-48l104 137h53l106 -137h-49zM439 517h49v-517h-49v89q-20 -46 -66 -73.5t-104 -27.5q-85 0 -139 54t-54 139v336h49v-329q0 -68 42 -111t109 -43q70 0 116.5 44t46.5 109v330z" />
    <glyph glyph-name="udieresis" unicode="&#xfc;" 
d="M186 608q-15 0 -25 10.5t-10 24.5t10 24.5t25 10.5q14 0 24.5 -10.5t10.5 -24.5t-10.5 -24.5t-24.5 -10.5zM378 608q-15 0 -25 10.5t-10 24.5t10 24.5t25 10.5q14 0 24.5 -10.5t10.5 -24.5t-10.5 -24.5t-24.5 -10.5zM439 517h49v-517h-49v89q-20 -46 -66 -73.5
t-104 -27.5q-85 0 -139 54t-54 139v336h49v-329q0 -68 42 -111t109 -43q70 0 116.5 44t46.5 109v330z" />
    <glyph glyph-name="yacute" unicode="&#xfd;" horiz-adv-x="576" 
d="M209 576l124 143l53 -12l-126 -131h-51zM136 -180q-46 0 -82 17l12 46q35 -16 69 -16q65 0 93 48l30 70l-228 532h54l200 -471l192 471h53l-241 -587q-45 -109 -152 -110z" />
    <glyph glyph-name="thorn" unicode="&#xfe;" horiz-adv-x="619" 
d="M331 529q97 0 165.5 -78.5t68.5 -191.5t-68.5 -192t-165.5 -79q-65 0 -117 31t-82 86v-277h-49v871h49v-286q30 55 82 85.5t117 30.5zM321 34q80 0 136.5 65.5t56.5 159.5q0 93 -56.5 158.5t-136.5 65.5q-83 0 -136 -63t-53 -161q0 -99 53 -162t136 -63z" />
    <glyph glyph-name="ydieresis" unicode="&#xff;" horiz-adv-x="576" 
d="M188 608q-15 0 -25 10.5t-10 24.5t10 24.5t25 10.5q14 0 24.5 -10.5t10.5 -24.5t-10.5 -24.5t-24.5 -10.5zM380 608q-15 0 -25 10.5t-10 24.5t10 24.5t25 10.5q14 0 24.5 -10.5t10.5 -24.5t-10.5 -24.5t-24.5 -10.5zM136 -180q-46 0 -82 17l12 46q35 -16 69 -16
q65 0 93 48l30 70l-228 532h54l200 -471l192 471h53l-241 -587q-45 -109 -152 -110z" />
    <glyph glyph-name="Amacron" unicode="&#x100;" horiz-adv-x="725" 
d="M517 812v-42h-310v42h310zM638 0l-75 169h-401l-75 -169h-55l303 687h55l303 -687h-55zM183 217h359l-179 408z" />
    <glyph glyph-name="amacron" unicode="&#x101;" horiz-adv-x="560" 
d="M445 642v-42h-310v42h310zM281 529q95 0 148.5 -59t53.5 -155v-315h-49v83q-28 -45 -83.5 -70t-113.5 -25q-82 0 -134.5 46t-52.5 120q0 76 58 123.5t148 47.5q81 0 178 -34v24q0 70 -38 119.5t-120 49.5q-74 0 -156 -46l-20 41q93 50 181 50zM244 34q62 0 119 34t71 94
v87q-93 31 -171 31q-72 0 -118.5 -35t-46.5 -90q0 -53 42 -87t104 -34z" />
    <glyph glyph-name="Abreve" unicode="&#x102;" horiz-adv-x="725" 
d="M508 819q-60 -60 -146 -60q-84 0 -146 60l33 33q47 -47 113 -47t113 47zM638 0l-75 169h-401l-75 -169h-55l303 687h55l303 -687h-55zM183 217h359l-179 408z" />
    <glyph glyph-name="abreve" unicode="&#x103;" horiz-adv-x="560" 
d="M436 649q-60 -60 -146 -60q-84 0 -146 60l33 33q47 -47 113 -47t113 47zM281 529q95 0 148.5 -59t53.5 -155v-315h-49v83q-28 -45 -83.5 -70t-113.5 -25q-82 0 -134.5 46t-52.5 120q0 76 58 123.5t148 47.5q81 0 178 -34v24q0 70 -38 119.5t-120 49.5q-74 0 -156 -46
l-20 41q93 50 181 50zM244 34q62 0 119 34t71 94v87q-93 31 -171 31q-72 0 -118.5 -35t-46.5 -90q0 -53 42 -87t104 -34z" />
    <glyph glyph-name="Aogonek" unicode="&#x104;" horiz-adv-x="725" 
d="M748 -108l24 -36q-35 -29 -84 -29q-45 0 -73.5 28t-28.5 74q0 57 47 82l-70 158h-401l-75 -169h-55l303 687h55l303 -687q-30 0 -47 -17.5t-17 -48.5q0 -30 16.5 -46.5t47.5 -16.5q36 0 55 21zM183 217h359l-179 408z" />
    <glyph glyph-name="aogonek" unicode="&#x105;" horiz-adv-x="560" 
d="M538 -108l24 -36q-35 -29 -84 -29q-45 0 -73.5 28t-28.5 74q0 30 16 54t42 33v67q-28 -45 -83.5 -70t-113.5 -25q-82 0 -134.5 46t-52.5 120q0 76 58 123.5t148 47.5q81 0 178 -34v24q0 70 -38 119.5t-120 49.5q-74 0 -156 -46l-20 41q93 50 181 50q95 0 148.5 -59
t53.5 -155v-315q-30 0 -47 -17.5t-17 -48.5q0 -30 16.5 -46.5t47.5 -16.5q36 0 55 21zM244 34q62 0 119 34t71 94v87q-93 31 -171 31q-72 0 -118.5 -35t-46.5 -90q0 -53 42 -87t104 -34z" />
    <glyph glyph-name="Cacute" unicode="&#x106;" horiz-adv-x="680" 
d="M316 746l124 143l53 -12l-126 -131h-51zM404 -12q-143 0 -247.5 105.5t-104.5 250.5t104.5 250t247.5 105q144 0 247 -105l-35 -35q-89 92 -212 92t-212.5 -91t-89.5 -216t89.5 -216.5t212.5 -91.5t212 92l35 -35q-105 -105 -247 -105z" />
    <glyph glyph-name="cacute" unicode="&#x107;" horiz-adv-x="529" 
d="M216 576l124 143l53 -12l-126 -131h-51zM309 -12q-112 0 -186.5 77.5t-74.5 193.5t74.5 193t186.5 77q104 0 180 -76l-35 -34q-61 64 -145 64q-91 0 -151 -64t-60 -160q0 -97 60 -161t151 -64q84 0 147 65l34 -34q-75 -77 -181 -77z" />
    <glyph glyph-name="Ccaron" unicode="&#x10c;" horiz-adv-x="680" 
d="M365 746l-104 137h48l82 -99l84 99h49l-106 -137h-53zM404 -12q-143 0 -247.5 105.5t-104.5 250.5t104.5 250t247.5 105q144 0 247 -105l-35 -35q-89 92 -212 92t-212.5 -91t-89.5 -216t89.5 -216.5t212.5 -91.5t212 92l35 -35q-105 -105 -247 -105z" />
    <glyph glyph-name="ccaron" unicode="&#x10d;" horiz-adv-x="529" 
d="M265 576l-104 137h48l82 -99l84 99h49l-106 -137h-53zM309 -12q-112 0 -186.5 77.5t-74.5 193.5t74.5 193t186.5 77q104 0 180 -76l-35 -34q-61 64 -145 64q-91 0 -151 -64t-60 -160q0 -97 60 -161t151 -64q84 0 147 65l34 -34q-75 -77 -181 -77z" />
    <glyph glyph-name="Dcaron" unicode="&#x10e;" horiz-adv-x="751" 
d="M302 746l-104 137h48l82 -99l84 99h49l-106 -137h-53zM94 0v687h234q158 0 258.5 -96t100.5 -247t-101 -247.5t-258 -96.5h-234zM144 48h184q136 0 222 83t86 213t-86 212.5t-222 82.5h-184v-591z" />
    <glyph glyph-name="dcaron" unicode="&#x10f;" horiz-adv-x="619" 
d="M487 413v286h49v-699h-49v105q-30 -55 -82 -86t-117 -31q-97 0 -165.5 79t-68.5 192t68.5 191.5t165.5 78.5q65 0 117 -30.5t82 -85.5zM646 699q18 0 28.5 -13.5t10.5 -37.5q0 -48 -60 -127l-28 20q38 44 49 88q-16 0 -26 10t-10 25q0 14 10.5 24.5t25.5 10.5zM298 34
q83 0 136 63t53 162q0 98 -53 161t-136 63q-80 0 -136.5 -65.5t-56.5 -158.5q0 -94 56.5 -159.5t136.5 -65.5z" />
    <glyph glyph-name="Dcroat" unicode="&#x110;" horiz-adv-x="778" 
d="M355 687q158 0 258.5 -96t100.5 -247t-101 -247.5t-258 -96.5h-234v326h-79v48h79v313h234zM355 48q136 0 222 83t86 213t-86 212.5t-222 82.5h-184v-265h220l-1 -48h-219v-278h184z" />
    <glyph glyph-name="dcroat" unicode="&#x111;" horiz-adv-x="637" 
d="M600 630v-40h-64v-590h-49v105q-30 -55 -82 -86t-117 -31q-97 0 -165.5 79t-68.5 192t68.5 191.5t165.5 78.5q65 0 117 -30.5t82 -85.5v177h-184v40h184v69h49v-69h64zM298 34q83 0 136 63t53 162q0 98 -53 161t-136 63q-80 0 -136.5 -65.5t-56.5 -158.5
q0 -94 56.5 -159.5t136.5 -65.5z" />
    <glyph glyph-name="Emacron" unicode="&#x112;" horiz-adv-x="599" 
d="M467 812v-42h-310v42h310zM544 638h-415v-264h381v-48h-381v-277h415v-49h-465v687h465v-49z" />
    <glyph glyph-name="emacron" unicode="&#x113;" horiz-adv-x="595" 
d="M457 642v-42h-310v42h310zM304 34q54 0 103.5 18t78.5 50l32 -34q-33 -36 -93 -58t-120 -22q-104 0 -180.5 79.5t-76.5 192.5q0 114 74 191.5t180 77.5q113 0 179.5 -79.5t66.5 -211.5h-450q8 -86 66.5 -145t139.5 -59zM303 483q-81 0 -139 -56.5t-66 -142.5h401
q-5 89 -57.5 144t-138.5 55z" />
    <glyph glyph-name="Edotaccent" unicode="&#x116;" horiz-adv-x="599" 
d="M312 778q-15 0 -25 10.5t-10 24.5t10 24.5t25 10.5q14 0 25 -10.5t11 -24.5t-11 -24.5t-25 -10.5zM544 638h-415v-264h381v-48h-381v-277h415v-49h-465v687h465v-49z" />
    <glyph glyph-name="edotaccent" unicode="&#x117;" horiz-adv-x="595" 
d="M302 608q-15 0 -25 10.5t-10 24.5t10 24.5t25 10.5q14 0 25 -10.5t11 -24.5t-11 -24.5t-25 -10.5zM304 34q54 0 103.5 18t78.5 50l32 -34q-33 -36 -93 -58t-120 -22q-104 0 -180.5 79.5t-76.5 192.5q0 114 74 191.5t180 77.5q113 0 179.5 -79.5t66.5 -211.5h-450
q8 -86 66.5 -145t139.5 -59zM303 483q-81 0 -139 -56.5t-66 -142.5h401q-5 89 -57.5 144t-138.5 55z" />
    <glyph glyph-name="Eogonek" unicode="&#x118;" horiz-adv-x="599" 
d="M544 638h-415v-264h381v-48h-381v-277h415v-49h-79q-30 0 -47 -17.5t-17 -48.5q0 -30 16.5 -46.5t47.5 -16.5q36 0 55 21l24 -36q-35 -29 -84 -29q-45 0 -73.5 28t-28.5 74q0 43 31 71h-310v687h465v-49z" />
    <glyph glyph-name="eogonek" unicode="&#x119;" horiz-adv-x="595" 
d="M394 0q-19 -17 -19 -50q0 -30 16.5 -46.5t47.5 -16.5q36 0 55 21l24 -36q-35 -29 -84 -29q-45 0 -73.5 28t-28.5 74q0 25 11 45q-26 -2 -38 -2q-104 0 -180.5 79.5t-76.5 192.5q0 114 74 191.5t180 77.5q113 0 179.5 -79.5t66.5 -211.5h-450q8 -86 66.5 -145t139.5 -59
q54 0 103.5 18t78.5 50l32 -34q-42 -45 -124 -68zM303 483q-81 0 -139 -56.5t-66 -142.5h401q-5 89 -57.5 144t-138.5 55z" />
    <glyph glyph-name="Ecaron" unicode="&#x11a;" horiz-adv-x="599" 
d="M339 746h-53l-104 137h48l82 -99l84 99h49zM544 638h-415v-264h381v-48h-381v-277h415v-49h-465v687h465v-49z" />
    <glyph glyph-name="ecaron" unicode="&#x11b;" horiz-adv-x="595" 
d="M329 576h-53l-104 137h48l82 -99l84 99h49zM304 34q54 0 103.5 18t78.5 50l32 -34q-33 -36 -93 -58t-120 -22q-104 0 -180.5 79.5t-76.5 192.5q0 114 74 191.5t180 77.5q113 0 179.5 -79.5t66.5 -211.5h-450q8 -86 66.5 -145t139.5 -59zM303 483q-81 0 -139 -56.5
t-66 -142.5h401q-5 89 -57.5 144t-138.5 55z" />
    <glyph glyph-name="Gbreve" unicode="&#x11e;" horiz-adv-x="744" 
d="M550 819q-60 -60 -146 -60q-84 0 -146 60l33 33q47 -47 113 -47t113 47zM395 299v49h275v-256q-52 -49 -122 -76.5t-144 -27.5q-143 0 -247.5 105.5t-104.5 250.5t104.5 250t247.5 105q75 0 145 -27.5t121 -75.5l-35 -35q-44 42 -105.5 66t-125.5 24q-123 0 -212.5 -91
t-89.5 -216t89.5 -216.5t212.5 -91.5q125 0 216 77v186h-225z" />
    <glyph glyph-name="gbreve" unicode="&#x11f;" horiz-adv-x="610" 
d="M445 649q-60 -60 -146 -60q-85 0 -146 60l33 33q47 -47 113 -47t113 47zM478 517h49v-462q0 -100 -67.5 -163.5t-173.5 -63.5q-58 0 -115.5 19.5t-93.5 49.5l23 41q32 -29 82 -46.5t98 -17.5q89 0 143.5 50t54.5 131v106q-29 -59 -83.5 -91t-123.5 -32q-96 0 -163 71.5
t-67 174.5t67 174t163 71q70 0 124 -31.5t83 -91.5v111zM281 84q85 0 141 56.5t56 143.5q0 86 -56 142.5t-141 56.5q-79 0 -134 -58t-55 -141t55 -141.5t134 -58.5z" />
    <glyph glyph-name="Gcommaaccent" unicode="&#x122;" horiz-adv-x="744" 
d="M395 299v49h275v-256q-52 -49 -122 -76.5t-144 -27.5q-143 0 -247.5 105.5t-104.5 250.5t104.5 250t247.5 105q75 0 145 -27.5t121 -75.5l-35 -35q-44 42 -105.5 66t-125.5 24q-123 0 -212.5 -91t-89.5 -216t89.5 -216.5t212.5 -91.5q125 0 216 77v186h-225zM402 -92
q18 0 28.5 -13.5t10.5 -37.5q0 -48 -60 -127l-28 20q38 44 49 88q-16 0 -26 10t-10 25q0 14 10.5 24.5t25.5 10.5z" />
    <glyph glyph-name="gcommaaccent" unicode="&#x123;" horiz-adv-x="610" 
d="M294 608q-18 0 -28.5 13.5t-10.5 37.5q0 48 60 127l28 -20q-38 -44 -49 -88q16 0 26 -10t10 -25q0 -14 -10.5 -24.5t-25.5 -10.5zM478 517h49v-462q0 -100 -67.5 -163.5t-173.5 -63.5q-58 0 -115.5 19.5t-93.5 49.5l23 41q32 -29 82 -46.5t98 -17.5q89 0 143.5 50
t54.5 131v106q-29 -59 -83.5 -91t-123.5 -32q-96 0 -163 71.5t-67 174.5t67 174t163 71q70 0 124 -31.5t83 -91.5v111zM281 84q85 0 141 56.5t56 143.5q0 86 -56 142.5t-141 56.5q-79 0 -134 -58t-55 -141t55 -141.5t134 -58.5z" />
    <glyph glyph-name="Imacron" unicode="&#x12a;" horiz-adv-x="208" 
d="M-51 770v42h310v-42h-310zM79 0v687h50v-687h-50z" />
    <glyph glyph-name="imacron" unicode="&#x12b;" horiz-adv-x="199" 
d="M-55 600v42h310v-42h-310zM75 0v517h49v-517h-49z" />
    <glyph glyph-name="Iogonek" unicode="&#x12e;" horiz-adv-x="208" 
d="M184 -108l24 -36q-35 -29 -84 -29q-45 0 -73.5 28t-28.5 74q0 30 15.5 53.5t41.5 33.5v671h50v-687q-30 0 -47 -17.5t-17 -48.5q0 -30 16.5 -46.5t47.5 -16.5q36 0 55 21z" />
    <glyph glyph-name="iogonek" unicode="&#x12f;" horiz-adv-x="199" 
d="M100 608q-15 0 -25 10.5t-10 24.5t10 24.5t25 10.5q14 0 25 -10.5t11 -24.5t-11 -24.5t-25 -10.5zM155 -108l24 -36q-35 -29 -84 -29q-45 0 -73.5 28t-28.5 74q0 34 20 59.5t51 31.5l11 -6v503h49v-517h-24q-30 0 -47 -17.5t-17 -48.5q0 -30 17 -46.5t47 -16.5
q36 0 55 21z" />
    <glyph glyph-name="Idotaccent" unicode="&#x130;" horiz-adv-x="208" 
d="M104 778q-15 0 -25 10.5t-10 24.5t10 24.5t25 10.5q14 0 25 -10.5t11 -24.5t-11 -24.5t-25 -10.5zM79 0v687h50v-687h-50z" />
    <glyph glyph-name="dotlessi" unicode="&#x131;" horiz-adv-x="199" 
d="M75 0v517h49v-517h-49z" />
    <glyph glyph-name="Kcommaaccent" unicode="&#x136;" horiz-adv-x="628" 
d="M92 0v687h50v-413l379 413h66l-286 -312l307 -375h-64l-278 339l-124 -134v-205h-50zM307 -270l-28 20q38 44 49 88q-16 0 -26 10t-10 25q0 14 10.5 24.5t25.5 10.5q18 0 28.5 -13.5t10.5 -37.5q0 -48 -60 -127z" />
    <glyph glyph-name="kcommaaccent" unicode="&#x137;" horiz-adv-x="514" 
d="M500 517l-232 -237l220 -280h-62l-192 246l-110 -111v-135h-49v699h49v-498l311 316h65zM266 -92q18 0 28.5 -13.5t10.5 -37.5q0 -48 -60 -127l-28 20q38 44 49 88q-16 0 -26 10t-10 25q0 14 10.5 24.5t25.5 10.5z" />
    <glyph glyph-name="Lacute" unicode="&#x139;" horiz-adv-x="541" 
d="M244 877l-126 -131h-51l124 143zM118 49h389v-49h-439v687h50v-638z" />
    <glyph glyph-name="lacute" unicode="&#x13a;" horiz-adv-x="201" 
d="M76 758l124 143l53 -12l-126 -131h-51zM76 0v699h49v-699h-49z" />
    <glyph glyph-name="Lcaron" unicode="&#x13d;" horiz-adv-x="541" 
d="M208 521l-28 20q38 44 49 88q-16 0 -26 10t-10 25q0 14 10.5 24.5t25.5 10.5q18 0 28.5 -13.5t10.5 -37.5q0 -48 -60 -127zM118 49h389v-49h-439v687h50v-638z" />
    <glyph glyph-name="lcaron" unicode="&#x13e;" horiz-adv-x="201" 
d="M76 0v699h49v-699h-49zM215 521l-28 20q38 44 49 88q-16 0 -26 10t-10 25q0 14 10.5 24.5t25.5 10.5q18 0 28.5 -13.5t10.5 -37.5q0 -48 -60 -127z" />
    <glyph glyph-name="Lslash" unicode="&#x141;" horiz-adv-x="607" 
d="M184 49h389v-49h-439v296l-97 -50v52l97 50v339h50v-313l152 78v-52l-152 -78v-273z" />
    <glyph glyph-name="lslash" unicode="&#x142;" horiz-adv-x="282" 
d="M245 403v-52l-80 -41v-310h-49v285l-79 -41v52l79 41v362h49v-337z" />
    <glyph glyph-name="Nacute" unicode="&#x143;" horiz-adv-x="742" 
d="M296 746l124 143l53 -12l-126 -131h-51zM94 0v687h50l454 -607v607h50v-687h-50l-454 607v-607h-50z" />
    <glyph glyph-name="nacute" unicode="&#x144;" 
d="M389 707l-126 -131h-51l124 143zM296 529q85 0 139 -54t54 -139v-336h-49v329q0 68 -42 111t-109 43q-70 0 -116.5 -44t-46.5 -109v-330h-49v517h49v-89q20 46 66 73.5t104 27.5z" />
    <glyph glyph-name="Ncommaaccent" unicode="&#x145;" horiz-adv-x="742" 
d="M94 0v687h50l454 -607v607h50v-687h-50l-454 607v-607h-50zM350 -270l-28 20q38 44 49 88q-16 0 -26 10t-10 25q0 14 10.5 24.5t25.5 10.5q18 0 28.5 -13.5t10.5 -37.5q0 -48 -60 -127z" />
    <glyph glyph-name="ncommaaccent" unicode="&#x146;" 
d="M296 529q85 0 139 -54t54 -139v-336h-49v329q0 68 -42 111t-109 43q-70 0 -116.5 -44t-46.5 -109v-330h-49v517h49v-89q20 46 66 73.5t104 27.5zM287 -92q18 0 28.5 -13.5t10.5 -37.5q0 -48 -60 -127l-28 20q38 44 49 88q-16 0 -26 10t-10 25q0 14 10.5 24.5t25.5 10.5z
" />
    <glyph glyph-name="Ncaron" unicode="&#x147;" horiz-adv-x="742" 
d="M345 746l-104 137h48l82 -99l84 99h49l-106 -137h-53zM94 0v687h50l454 -607v607h50v-687h-50l-454 607v-607h-50z" />
    <glyph glyph-name="ncaron" unicode="&#x148;" 
d="M314 576h-53l-104 137h48l82 -99l84 99h49zM296 529q85 0 139 -54t54 -139v-336h-49v329q0 68 -42 111t-109 43q-70 0 -116.5 -44t-46.5 -109v-330h-49v517h49v-89q20 46 66 73.5t104 27.5z" />
    <glyph glyph-name="Omacron" unicode="&#x14c;" horiz-adv-x="807" 
d="M249 770v42h310v-42h-310zM404 -12q-143 0 -247.5 105.5t-104.5 250.5t104.5 250t247.5 105t247 -105t104 -250t-104 -250.5t-247 -105.5zM404 36q122 0 211.5 91.5t89.5 216.5t-89.5 216t-211.5 91q-123 0 -212.5 -91t-89.5 -216t89.5 -216.5t212.5 -91.5z" />
    <glyph glyph-name="omacron" unicode="&#x14d;" horiz-adv-x="631" 
d="M161 600v42h310v-42h-310zM316 -12q-109 0 -188.5 80.5t-79.5 190.5t79.5 190t188.5 80t188 -80t79 -190t-79 -190.5t-188 -80.5zM316 34q88 0 152.5 67t64.5 158t-64.5 157.5t-152.5 66.5t-153 -66.5t-65 -157.5t64.5 -158t153.5 -67z" />
    <glyph glyph-name="Ohungarumlaut" unicode="&#x150;" horiz-adv-x="807" 
d="M282 746l124 143l53 -12l-126 -131h-51zM459 746l124 142l54 -12l-126 -130h-52zM404 -12q-143 0 -247.5 105.5t-104.5 250.5t104.5 250t247.5 105t247 -105t104 -250t-104 -250.5t-247 -105.5zM404 36q122 0 211.5 91.5t89.5 216.5t-89.5 216t-211.5 91
q-123 0 -212.5 -91t-89.5 -216t89.5 -216.5t212.5 -91.5z" />
    <glyph glyph-name="ohungarumlaut" unicode="&#x151;" horiz-adv-x="631" 
d="M196 576l124 143l53 -12l-126 -131h-51zM373 576l124 142l54 -12l-126 -130h-52zM316 -12q-109 0 -188.5 80.5t-79.5 190.5t79.5 190t188.5 80t188 -80t79 -190t-79 -190.5t-188 -80.5zM316 34q88 0 152.5 67t64.5 158t-64.5 157.5t-152.5 66.5t-153 -66.5t-65 -157.5
t64.5 -158t153.5 -67z" />
    <glyph glyph-name="OE" unicode="&#x152;" horiz-adv-x="1004" 
d="M949 638h-415v-264h381v-48h-381v-277h415v-49h-545q-145 0 -248.5 99t-103.5 242q0 144 104 245t248 101h545v-49zM404 48h80v591h-80q-124 0 -213 -87t-89 -211t88.5 -208.5t213.5 -84.5z" />
    <glyph glyph-name="oe" unicode="&#x153;" horiz-adv-x="1080" 
d="M789 34q54 0 103.5 18t78.5 50l32 -34q-33 -36 -93 -58t-120 -22q-75 0 -138 43t-95 114q-33 -70 -98 -113.5t-143 -43.5q-109 0 -188.5 80.5t-79.5 190.5t79.5 190t188.5 80q77 0 142 -42.5t98 -111.5q31 70 93 112t138 42q113 0 179.5 -79.5t66.5 -211.5h-450
q8 -86 66.5 -145t139.5 -59zM316 34q88 0 152.5 67t64.5 158t-64.5 157.5t-152.5 66.5t-153 -66.5t-65 -157.5t64.5 -158t153.5 -67zM788 483q-81 0 -139 -56.5t-66 -142.5h401q-5 89 -57.5 144t-138.5 55z" />
    <glyph glyph-name="Racute" unicode="&#x154;" horiz-adv-x="643" 
d="M431 877l-126 -131h-51l124 143zM608 474q0 -84 -56.5 -142t-146.5 -69l184 -263h-59l-182 260h-219v-260h-50v687h286q105 0 174 -60t69 -153zM129 638v-329h226q90 0 146 45.5t56 119.5q0 73 -56 118.5t-146 45.5h-226z" />
    <glyph glyph-name="racute" unicode="&#x155;" horiz-adv-x="360" 
d="M309 707l-126 -131h-51l124 143zM132 404q20 55 74.5 90t125.5 35v-46q-88 0 -144 -54.5t-56 -139.5v-289h-49v517h49v-113z" />
    <glyph glyph-name="Rcommaaccent" unicode="&#x156;" horiz-adv-x="643" 
d="M608 474q0 -84 -56.5 -142t-146.5 -69l184 -263h-59l-182 260h-219v-260h-50v687h286q105 0 174 -60t69 -153zM129 638v-329h226q90 0 146 45.5t56 119.5q0 73 -56 118.5t-146 45.5h-226zM319 -92q18 0 28.5 -13.5t10.5 -37.5q0 -48 -60 -127l-28 20q38 44 49 88
q-16 0 -26 10t-10 25q0 14 10.5 24.5t25.5 10.5z" />
    <glyph glyph-name="rcommaaccent" unicode="&#x157;" horiz-adv-x="360" 
d="M132 404q20 55 74.5 90t125.5 35v-46q-88 0 -144 -54.5t-56 -139.5v-289h-49v517h49v-113zM132 -92q18 0 28.5 -13.5t10.5 -37.5q0 -48 -60 -127l-28 20q38 44 49 88q-16 0 -26 10t-10 25q0 14 10.5 24.5t25.5 10.5z" />
    <glyph glyph-name="Rcaron" unicode="&#x158;" horiz-adv-x="643" 
d="M356 746h-53l-104 137h48l82 -99l84 99h49zM608 474q0 -84 -56.5 -142t-146.5 -69l184 -263h-59l-182 260h-219v-260h-50v687h286q105 0 174 -60t69 -153zM129 638v-329h226q90 0 146 45.5t56 119.5q0 73 -56 118.5t-146 45.5h-226z" />
    <glyph glyph-name="rcaron" unicode="&#x159;" horiz-adv-x="360" 
d="M234 576h-53l-104 137h48l82 -99l84 99h49zM132 404q20 55 74.5 90t125.5 35v-46q-88 0 -144 -54.5t-56 -139.5v-289h-49v517h49v-113z" />
    <glyph glyph-name="Sacute" unicode="&#x15a;" horiz-adv-x="606" 
d="M225 746l124 143l53 -12l-126 -131h-51zM317 -11q-160 0 -271 109l31 39q100 -100 242 -100q82 0 132.5 39.5t50.5 99.5q0 56 -47 90t-153 59q-119 27 -172 67.5t-53 111.5q0 85 63 140.5t160 55.5q134 0 238 -98l-30 -39q-94 89 -211 89q-74 0 -122 -41t-48 -103
q0 -50 46.5 -80t153.5 -56q117 -28 171 -72t54 -120q0 -83 -64.5 -137t-170.5 -54z" />
    <glyph glyph-name="sacute" unicode="&#x15b;" horiz-adv-x="489" 
d="M177 576l124 143l53 -12l-126 -131h-51zM259 -12q-118 0 -214 77l28 37q93 -68 186 -68q56 0 94.5 26.5t38.5 64.5q0 42 -34 68t-109 48q-93 29 -132.5 63t-39.5 86q0 59 50.5 99t123.5 40q95 0 185 -58l-27 -38q-78 50 -158 50q-52 0 -88.5 -25t-36.5 -62t33.5 -61.5
t113.5 -49.5q87 -27 127.5 -61.5t40.5 -92.5q0 -60 -53 -101.5t-129 -41.5z" />
    <glyph glyph-name="Scedilla" unicode="&#x15e;" horiz-adv-x="606" 
d="M552 180q0 -81 -60.5 -134t-161.5 -57l-15 -35q4 1 13 1q30 0 48.5 -18t18.5 -47q0 -34 -27.5 -58t-66.5 -24q-45 0 -83 28l16 36q30 -24 66 -24q22 0 38 13t16 31q0 15 -11 25t-30 10t-34 -11l-16 17l24 57q-142 11 -241 108l31 39q100 -100 242 -100q82 0 132.5 39.5
t50.5 99.5q0 56 -47 90t-153 59q-119 27 -172 67.5t-53 111.5q0 85 63 140.5t160 55.5q134 0 238 -98l-30 -39q-94 89 -211 89q-74 0 -122 -41t-48 -103q0 -50 46.5 -80t153.5 -56q117 -28 171 -72t54 -120z" />
    <glyph glyph-name="scedilla" unicode="&#x15f;" horiz-adv-x="489" 
d="M441 131q0 -58 -50 -99t-122 -44l-14 -34q4 1 13 1q30 0 48.5 -18t18.5 -47q0 -34 -27.5 -58t-66.5 -24q-45 0 -83 28l16 36q30 -24 66 -24q22 0 38 13t16 31q0 15 -11 25t-30 10t-34 -11l-16 17l24 57q-103 11 -182 75l28 37q93 -68 186 -68q56 0 94.5 26.5t38.5 64.5
q0 42 -34 68t-109 48q-93 29 -132.5 63t-39.5 86q0 59 50.5 99t123.5 40q95 0 185 -58l-27 -38q-78 50 -158 50q-52 0 -88.5 -25t-36.5 -62t33.5 -61.5t113.5 -49.5q87 -27 127.5 -61.5t40.5 -92.5z" />
    <glyph glyph-name="Scaron" unicode="&#x160;" horiz-adv-x="606" 
d="M274 746l-104 137h48l82 -99l84 99h49l-106 -137h-53zM317 -11q-160 0 -271 109l31 39q100 -100 242 -100q82 0 132.5 39.5t50.5 99.5q0 56 -47 90t-153 59q-119 27 -172 67.5t-53 111.5q0 85 63 140.5t160 55.5q134 0 238 -98l-30 -39q-94 89 -211 89q-74 0 -122 -41
t-48 -103q0 -50 46.5 -80t153.5 -56q117 -28 171 -72t54 -120q0 -83 -64.5 -137t-170.5 -54z" />
    <glyph glyph-name="scaron" unicode="&#x161;" horiz-adv-x="489" 
d="M226 576l-104 137h48l82 -99l84 99h49l-106 -137h-53zM259 -12q-118 0 -214 77l28 37q93 -68 186 -68q56 0 94.5 26.5t38.5 64.5q0 42 -34 68t-109 48q-93 29 -132.5 63t-39.5 86q0 59 50.5 99t123.5 40q95 0 185 -58l-27 -38q-78 50 -158 50q-52 0 -88.5 -25t-36.5 -62
t33.5 -61.5t113.5 -49.5q87 -27 127.5 -61.5t40.5 -92.5q0 -60 -53 -101.5t-129 -41.5z" />
    <glyph glyph-name="uni0162" unicode="&#x162;" horiz-adv-x="630" 
d="M585 638h-245v-627h4l-4 -9v-2h-1l-19 -46q4 1 13 1q30 0 48.5 -18t18.5 -47q0 -34 -27.5 -58t-66.5 -24q-45 0 -83 28l16 36q30 -24 66 -24q22 0 38 13t16 31q0 15 -11 25t-30 10t-34 -11l-16 17l28 67h-6v638h-245v49h540v-49z" />
    <glyph glyph-name="uni0163" unicode="&#x163;" horiz-adv-x="363" 
d="M259 -45q30 0 48.5 -18t18.5 -47q0 -34 -27.5 -58t-66.5 -24q-45 0 -83 28l16 36q30 -24 66 -24q22 0 38 13t16 31q0 15 -11 25t-30 10t-34 -11l-16 17l24 57q-42 7 -67.5 42.5t-25.5 87.5v351h-88v46h88v142h49v-142h133v-46h-133v-351q0 -37 18.5 -61.5t47.5 -24.5
q38 0 68 25l25 -38q-33 -25 -72 -31l-15 -36q4 1 13 1z" />
    <glyph glyph-name="Tcaron" unicode="&#x164;" horiz-adv-x="630" 
d="M289 746l-104 137h48l82 -99l84 99h49l-106 -137h-53zM290 0v638h-245v49h540v-49h-245v-638h-50z" />
    <glyph glyph-name="tcaron" unicode="&#x165;" horiz-adv-x="363" 
d="M418 699q18 0 28.5 -13.5t10.5 -37.5q0 -48 -60 -127l-28 20q38 44 49 88q-16 0 -26 10t-10 25q0 14 10.5 24.5t25.5 10.5zM240 34q38 0 68 25l25 -38q-42 -33 -96 -33q-49 0 -80.5 37t-31.5 95v351h-88v46h88v142h49v-142h133v-46h-133v-351q0 -37 18.5 -61.5
t47.5 -24.5z" />
    <glyph glyph-name="Umacron" unicode="&#x16a;" horiz-adv-x="718" 
d="M204 770v42h310v-42h-310zM359 -12q-120 0 -196.5 79.5t-76.5 204.5v415h50v-415q0 -104 62.5 -170t160.5 -66t160.5 66t62.5 170v415h50v-415q0 -125 -76.5 -204.5t-196.5 -79.5z" />
    <glyph glyph-name="umacron" unicode="&#x16b;" 
d="M437 642v-42h-310v42h310zM439 517h49v-517h-49v89q-20 -46 -66 -73.5t-104 -27.5q-85 0 -139 54t-54 139v336h49v-329q0 -68 42 -111t109 -43q70 0 116.5 44t46.5 109v330z" />
    <glyph glyph-name="Uring" unicode="&#x16e;" horiz-adv-x="718" 
d="M359 759q-42 0 -72.5 30.5t-30.5 72.5t30.5 72.5t72.5 30.5t72.5 -30.5t30.5 -72.5t-30.5 -72.5t-72.5 -30.5zM359 796q26 0 46 20t20 46t-20 46t-46 20t-46 -20t-20 -46t20 -46t46 -20zM359 -12q-120 0 -196.5 79.5t-76.5 204.5v415h50v-415q0 -104 62.5 -170t160.5 -66
t160.5 66t62.5 170v415h50v-415q0 -125 -76.5 -204.5t-196.5 -79.5z" />
    <glyph glyph-name="uring" unicode="&#x16f;" 
d="M282 589q-42 0 -72.5 30.5t-30.5 72.5t30.5 72.5t72.5 30.5t72.5 -30.5t30.5 -72.5t-30.5 -72.5t-72.5 -30.5zM282 758q-26 0 -46 -20t-20 -46t20 -46t46 -20t46 20t20 46t-20 46t-46 20zM439 517h49v-517h-49v89q-20 -46 -66 -73.5t-104 -27.5q-85 0 -139 54t-54 139
v336h49v-329q0 -68 42 -111t109 -43q70 0 116.5 44t46.5 109v330z" />
    <glyph glyph-name="Uhungarumlaut" unicode="&#x170;" horiz-adv-x="718" 
d="M228 746l124 143l53 -12l-126 -131h-51zM405 746l124 142l54 -12l-126 -130h-52zM359 -12q-120 0 -196.5 79.5t-76.5 204.5v415h50v-415q0 -104 62.5 -170t160.5 -66t160.5 66t62.5 170v415h50v-415q0 -125 -76.5 -204.5t-196.5 -79.5z" />
    <glyph glyph-name="uhungarumlaut" unicode="&#x171;" 
d="M337 707l-126 -131h-51l124 143zM389 576h-52l124 142l54 -12zM439 187v330h49v-517h-49v89q-20 -46 -66 -73.5t-104 -27.5q-85 0 -139 54t-54 139v336h49v-329q0 -68 42 -111t109 -43q70 0 116.5 44t46.5 109z" />
    <glyph glyph-name="Uogonek" unicode="&#x172;" horiz-adv-x="718" 
d="M582 687h50v-415q0 -125 -76.5 -204.5t-196.5 -79.5q-16 0 -23 1q-25 -17 -25 -55q0 -30 16.5 -46.5t47.5 -16.5q36 0 55 21l24 -36q-35 -29 -84 -29q-45 0 -73.5 28t-28.5 74q0 38 26 66q-94 21 -151 96t-57 181v415h50v-415q0 -104 62.5 -170t160.5 -66t160.5 66
t62.5 170v415z" />
    <glyph glyph-name="uogonek" unicode="&#x173;" 
d="M543 -108l24 -36q-35 -29 -84 -29q-45 0 -73.5 28t-28.5 74q0 30 16 54t42 33v73q-20 -46 -66 -73.5t-104 -27.5q-85 0 -139 54t-54 139v336h49v-329q0 -68 42 -111t109 -43q70 0 116.5 44t46.5 109v330h49v-517q-30 0 -47 -17.5t-17 -48.5q0 -30 17 -46.5t47 -16.5
q36 0 55 21z" />
    <glyph glyph-name="Wcircumflex" unicode="&#x174;" horiz-adv-x="1049" 
d="M395 746l104 137h53l106 -137h-49l-84 99l-82 -99h-48zM269 0l-232 687h55l204 -605l201 605h55l201 -605l204 605h55l-232 -687h-51l-204 614l-205 -614h-51z" />
    <glyph glyph-name="wcircumflex" unicode="&#x175;" horiz-adv-x="806" 
d="M274 576l104 137h53l106 -137h-49l-84 99l-82 -99h-48zM205 0l-170 517h51l147 -452l150 452h42l151 -452l146 452h51l-171 -517h-54l-144 438l-145 -438h-54z" />
    <glyph glyph-name="Ycircumflex" unicode="&#x176;" horiz-adv-x="645" 
d="M193 746l104 137h53l106 -137h-49l-84 99l-82 -99h-48zM297 0v279l-279 408h63l242 -356l242 356h62l-279 -408v-279h-51z" />
    <glyph glyph-name="ycircumflex" unicode="&#x177;" horiz-adv-x="576" 
d="M154 576l104 137h53l106 -137h-49l-84 99l-82 -99h-48zM136 -180q-46 0 -82 17l12 46q35 -16 69 -16q65 0 93 48l30 70l-228 532h54l200 -471l192 471h53l-241 -587q-45 -109 -152 -110z" />
    <glyph glyph-name="Ydieresis" unicode="&#x178;" horiz-adv-x="645" 
d="M227 778q-15 0 -25 10.5t-10 24.5t10 24.5t25 10.5q14 0 24.5 -10.5t10.5 -24.5t-10.5 -24.5t-24.5 -10.5zM419 778q-15 0 -25 10.5t-10 24.5t10 24.5t25 10.5q14 0 24.5 -10.5t10.5 -24.5t-10.5 -24.5t-24.5 -10.5zM297 0v279l-279 408h63l242 -356l242 356h62
l-279 -408v-279h-51z" />
    <glyph glyph-name="Zacute" unicode="&#x179;" horiz-adv-x="626" 
d="M240 746l124 143l53 -12l-126 -131h-51zM58 0v41l443 597h-436v49h501v-41l-443 -597h447v-49h-512z" />
    <glyph glyph-name="zacute" unicode="&#x17a;" horiz-adv-x="514" 
d="M186 576l124 143l53 -12l-126 -131h-51zM54 0v40l341 429h-335v48h400v-40l-341 -429h343v-48h-408z" />
    <glyph glyph-name="Zdotaccent" unicode="&#x17b;" horiz-adv-x="626" 
d="M315 778q-15 0 -25 10.5t-10 24.5t10 24.5t25 10.5q14 0 25 -10.5t11 -24.5t-11 -24.5t-25 -10.5zM58 0v41l443 597h-436v49h501v-41l-443 -597h447v-49h-512z" />
    <glyph glyph-name="zdotaccent" unicode="&#x17c;" horiz-adv-x="514" 
d="M261 608q-15 0 -25 10.5t-10 24.5t10 24.5t25 10.5q14 0 25 -10.5t11 -24.5t-11 -24.5t-25 -10.5zM54 0v40l341 429h-335v48h400v-40l-341 -429h343v-48h-408z" />
    <glyph glyph-name="Zcaron" unicode="&#x17d;" horiz-adv-x="626" 
d="M289 746l-104 137h48l82 -99l84 99h49l-106 -137h-53zM58 0v41l443 597h-436v49h501v-41l-443 -597h447v-49h-512z" />
    <glyph glyph-name="zcaron" unicode="&#x17e;" horiz-adv-x="514" 
d="M235 576l-104 137h48l82 -99l84 99h49l-106 -137h-53zM54 0v40l341 429h-335v48h400v-40l-341 -429h343v-48h-408z" />
    <glyph glyph-name="uni0237" unicode="&#x237;" horiz-adv-x="182" 
d="M2 -178q-44 0 -81 16l9 43q32 -13 69 -13q30 0 48.5 22t18.5 57v570h49v-570q0 -55 -31.5 -90t-81.5 -35z" />
    <glyph glyph-name="circumflex" unicode="&#x2c6;" horiz-adv-x="389" 
d="M63 576l104 137h53l106 -137h-49l-84 99l-82 -99h-48z" />
    <glyph glyph-name="caron" unicode="&#x2c7;" horiz-adv-x="389" 
d="M167 576l-104 137h48l82 -99l84 99h49l-106 -137h-53z" />
    <glyph glyph-name="breve" unicode="&#x2d8;" horiz-adv-x="418" 
d="M209 589q-84 0 -146 60l33 33q47 -47 113 -47t113 47l33 -33q-60 -60 -146 -60z" />
    <glyph glyph-name="dotaccent" unicode="&#x2d9;" horiz-adv-x="197" 
d="M98 608q-15 0 -25 10.5t-10 24.5t10 24.5t25 10.5q14 0 25 -10.5t11 -24.5t-11 -24.5t-25 -10.5z" />
    <glyph glyph-name="ring" unicode="&#x2da;" horiz-adv-x="332" 
d="M166 589q-42 0 -72.5 30.5t-30.5 72.5t30.5 72.5t72.5 30.5t72.5 -30.5t30.5 -72.5t-30.5 -72.5t-72.5 -30.5zM166 626q26 0 46 20t20 46t-20 46t-46 20t-46 -20t-20 -46t20 -46t46 -20z" />
    <glyph glyph-name="ogonek" unicode="&#x2db;" horiz-adv-x="312" 
d="M165 -173q-45 0 -73.5 28t-28.5 74q0 34 20 59.5t51 31.5l36 -20q-30 0 -47 -17.5t-17 -48.5q0 -30 17 -46.5t47 -16.5q36 0 55 21l24 -36q-35 -29 -84 -29z" />
    <glyph glyph-name="tilde" unicode="&#x2dc;" horiz-adv-x="451" 
d="M290 582q-32 0 -71.5 33t-57.5 33q-41 0 -53 -75l-40 7q8 54 32 83t61 29q32 0 71.5 -33t57.5 -33q41 0 53 75l40 -7q-16 -112 -93 -112z" />
    <glyph glyph-name="hungarumlaut" unicode="&#x2dd;" horiz-adv-x="481" 
d="M63 576l124 143l53 -12l-126 -131h-51zM240 576l124 142l54 -12l-126 -130h-52z" />
    <glyph glyph-name="uni0326" unicode="&#x326;" horiz-adv-x="0" 
d="M-138 -270l-28 20q38 44 49 88q-16 0 -26 10t-10 25q0 14 10.5 24.5t25.5 10.5q18 0 28.5 -13.5t10.5 -37.5q0 -48 -60 -127z" />
    <glyph glyph-name="Wgrave" unicode="&#x1e80;" horiz-adv-x="1049" 
d="M500 746l-126 131l54 12l123 -143h-51zM269 0l-232 687h55l204 -605l201 605h55l201 -605l204 605h55l-232 -687h-51l-204 614l-205 -614h-51z" />
    <glyph glyph-name="wgrave" unicode="&#x1e81;" horiz-adv-x="806" 
d="M380 576l-126 131l54 12l123 -143h-51zM205 0l-170 517h51l147 -452l150 452h42l151 -452l146 452h51l-171 -517h-54l-144 438l-145 -438h-54z" />
    <glyph glyph-name="Wacute" unicode="&#x1e82;" horiz-adv-x="1049" 
d="M498 746l124 143l53 -12l-126 -131h-51zM269 0l-232 687h55l204 -605l201 605h55l201 -605l204 605h55l-232 -687h-51l-204 614l-205 -614h-51z" />
    <glyph glyph-name="wacute" unicode="&#x1e83;" horiz-adv-x="806" 
d="M378 576l124 143l53 -12l-126 -131h-51zM205 0l-170 517h51l147 -452l150 452h42l151 -452l146 452h51l-171 -517h-54l-144 438l-145 -438h-54z" />
    <glyph glyph-name="Wdieresis" unicode="&#x1e84;" horiz-adv-x="1049" 
d="M429 778q-15 0 -25 10.5t-10 24.5t10 24.5t25 10.5q14 0 24.5 -10.5t10.5 -24.5t-10.5 -24.5t-24.5 -10.5zM621 778q-15 0 -25 10.5t-10 24.5t10 24.5t25 10.5q14 0 24.5 -10.5t10.5 -24.5t-10.5 -24.5t-24.5 -10.5zM269 0l-232 687h55l204 -605l201 605h55l201 -605
l204 605h55l-232 -687h-51l-204 614l-205 -614h-51z" />
    <glyph glyph-name="wdieresis" unicode="&#x1e85;" horiz-adv-x="806" 
d="M308 608q-15 0 -25 10.5t-10 24.5t10 24.5t25 10.5q14 0 24.5 -10.5t10.5 -24.5t-10.5 -24.5t-24.5 -10.5zM500 608q-15 0 -25 10.5t-10 24.5t10 24.5t25 10.5q14 0 24.5 -10.5t10.5 -24.5t-10.5 -24.5t-24.5 -10.5zM205 0l-170 517h51l147 -452l150 452h42l151 -452
l146 452h51l-171 -517h-54l-144 438l-145 -438h-54z" />
    <glyph glyph-name="uni1EB8" unicode="&#x1eb8;" horiz-adv-x="599" 
d="M544 638h-415v-264h381v-48h-381v-277h415v-49h-465v687h465v-49zM311 -92q14 0 25 -10.5t11 -24.5t-11 -24.5t-25 -10.5q-15 0 -25 10.5t-10 24.5t10 24.5t25 10.5z" />
    <glyph glyph-name="uni1EB9" unicode="&#x1eb9;" horiz-adv-x="595" 
d="M304 34q54 0 103.5 18t78.5 50l32 -34q-33 -36 -93 -58t-120 -22q-104 0 -180.5 79.5t-76.5 192.5q0 114 74 191.5t180 77.5q113 0 179.5 -79.5t66.5 -211.5h-450q8 -86 66.5 -145t139.5 -59zM303 483q-81 0 -139 -56.5t-66 -142.5h401q-5 89 -57.5 144t-138.5 55z
M301 -92q14 0 25 -10.5t11 -24.5t-11 -24.5t-25 -10.5q-15 0 -25 10.5t-10 24.5t10 24.5t25 10.5z" />
    <glyph glyph-name="uni1EBC" unicode="&#x1ebc;" horiz-adv-x="599" 
d="M247 818q-41 0 -53 -75l-40 7q8 54 32 83t61 29q32 0 71.5 -33t57.5 -33q41 0 53 75l40 -7q-16 -112 -93 -112q-32 0 -71.5 33t-57.5 33zM544 638h-415v-264h381v-48h-381v-277h415v-49h-465v687h465v-49z" />
    <glyph glyph-name="uni1EBD" unicode="&#x1ebd;" horiz-adv-x="595" 
d="M237 648q-41 0 -53 -75l-40 7q8 54 32 83t61 29q32 0 71.5 -33t57.5 -33q41 0 53 75l40 -7q-16 -112 -93 -112q-32 0 -71.5 33t-57.5 33zM304 34q54 0 103.5 18t78.5 50l32 -34q-33 -36 -93 -58t-120 -22q-104 0 -180.5 79.5t-76.5 192.5q0 114 74 191.5t180 77.5
q113 0 179.5 -79.5t66.5 -211.5h-450q8 -86 66.5 -145t139.5 -59zM303 483q-81 0 -139 -56.5t-66 -142.5h401q-5 89 -57.5 144t-138.5 55z" />
    <glyph glyph-name="Ygrave" unicode="&#x1ef2;" horiz-adv-x="645" 
d="M343 746l-126 131l54 12l123 -143h-51zM297 0v279l-279 408h63l242 -356l242 356h62l-279 -408v-279h-51z" />
    <glyph glyph-name="ygrave" unicode="&#x1ef3;" horiz-adv-x="576" 
d="M304 576l-126 131l54 12l123 -143h-51zM136 -180q-46 0 -82 17l12 46q35 -16 69 -16q65 0 93 48l30 70l-228 532h54l200 -471l192 471h53l-241 -587q-45 -109 -152 -110z" />
    <glyph glyph-name="endash" unicode="&#x2013;" horiz-adv-x="577" 
d="M56 248v48h465v-48h-465z" />
    <glyph glyph-name="emdash" unicode="&#x2014;" horiz-adv-x="882" 
d="M56 248v48h770v-48h-770z" />
    <glyph glyph-name="quoteleft" unicode="&#x2018;" horiz-adv-x="249" 
d="M140 666l30 -22q-41 -48 -52 -92q17 0 28 -11t11 -27t-11.5 -27t-27.5 -11q-19 0 -30.5 14.5t-11.5 40.5q0 53 64 135z" />
    <glyph glyph-name="quoteright" unicode="&#x2019;" horiz-adv-x="249" 
d="M109 466l-30 22q41 48 52 92q-17 0 -28 11t-11 27t11.5 27t27.5 11q19 0 30.5 -14.5t11.5 -40.5q0 -53 -64 -135z" />
    <glyph glyph-name="quotedblleft" unicode="&#x201c;" horiz-adv-x="435" 
d="M140 666l30 -22q-41 -48 -52 -92q17 0 28 -11t11 -27t-11.5 -27t-27.5 -11q-19 0 -30.5 14.5t-11.5 40.5q0 53 64 135zM326 666l30 -22q-41 -48 -52 -92q17 0 28 -11t11 -27t-11.5 -27t-27.5 -11q-19 0 -30.5 14.5t-11.5 40.5q0 53 64 135z" />
    <glyph glyph-name="quotedblright" unicode="&#x201d;" horiz-adv-x="435" 
d="M109 466l-30 22q41 48 52 92q-17 0 -28 11t-11 27t11.5 27t27.5 11q19 0 30.5 -14.5t11.5 -40.5q0 -53 -64 -135zM296 466l-30 22q41 48 52 92q-17 0 -28 11t-11 27t11.5 27t27.5 11q19 0 30.5 -14.5t11.5 -40.5q0 -53 -64 -135z" />
    <glyph glyph-name="ellipsis" unicode="&#x2026;" horiz-adv-x="595" 
d="M112 -12q-16 0 -27.5 11.5t-11.5 27.5q0 15 11.5 26t27.5 11q15 0 26 -11.5t11 -25.5q0 -16 -11 -27.5t-26 -11.5zM299 -12q-16 0 -27.5 11.5t-11.5 27.5q0 15 11.5 26t27.5 11q15 0 26 -11.5t11 -25.5q0 -16 -11 -27.5t-26 -11.5zM485 -12q-16 0 -27.5 11.5t-11.5 27.5
q0 15 11.5 26t27.5 11q15 0 26 -11.5t11 -25.5q0 -16 -11 -27.5t-26 -11.5z" />
    <glyph glyph-name="perthousand" unicode="&#x2030;" horiz-adv-x="1150" 
d="M197 349q-66 0 -108 48t-42 122q0 76 42 125t109 49q66 0 108 -48.5t42 -123.5t-42.5 -123.5t-108.5 -48.5zM128 0l470 687h54l-470 -687h-54zM198 391q46 0 75.5 36.5t29.5 92.5q0 57 -30 94t-76 37t-75.5 -37t-29.5 -94q0 -56 30 -92.5t76 -36.5zM579 -10
q-66 0 -108 48.5t-42 123.5t42.5 123.5t108.5 48.5t108 -48.5t42 -122.5q0 -75 -42.5 -124t-108.5 -49zM951 -10q-65 0 -107.5 48.5t-42.5 123.5t42.5 123.5t108.5 48.5t108 -48.5t42 -122.5q0 -75 -42.5 -124t-108.5 -49zM580 32q46 0 75.5 36.5t29.5 93.5t-30 93.5
t-76 36.5t-75.5 -36.5t-29.5 -92.5q0 -57 30 -94t76 -37zM952 32q46 0 75.5 36.5t29.5 93.5t-30 93.5t-76 36.5t-75.5 -36.5t-29.5 -92.5q0 -57 30 -94t76 -37z" />
    <glyph glyph-name="Euro" unicode="&#x20ac;" horiz-adv-x="680" 
d="M404 36q123 0 212 92l35 -35q-105 -105 -247 -105q-117 0 -211 73.5t-127 185.5h-90v46h80q-4 23 -4 51q0 38 7 70h-83v46h96q37 105 128.5 172t203.5 67q144 0 247 -105l-35 -35q-89 92 -212 92q-92 0 -168 -53t-111 -138h347v-46h-362q-8 -37 -8 -70q0 -28 4 -51h366
v-46h-354q31 -92 110 -151.5t176 -59.5z" />
    <glyph glyph-name="minus" unicode="&#x2212;" horiz-adv-x="593" 
d="M67 310v48h459v-48h-459z" />
    <glyph glyph-name="a.alt" horiz-adv-x="612" 
d="M480 517h49v-517h-49v105q-30 -55 -82 -86t-117 -31q-97 0 -165.5 79t-68.5 192t68.5 191.5t165.5 78.5q65 0 117 -30.5t82 -85.5v104zM291 34q83 0 136 63t53 162q0 98 -53 161t-136 63q-80 0 -136.5 -65.5t-56.5 -158.5q0 -94 56.5 -159.5t136.5 -65.5z" />
    <glyph glyph-name="aacute.alt" horiz-adv-x="612" 
d="M401 707l-126 -131h-51l124 143zM480 517h49v-517h-49v105q-30 -55 -82 -86t-117 -31q-97 0 -165.5 79t-68.5 192t68.5 191.5t165.5 78.5q65 0 117 -30.5t82 -85.5v104zM291 34q83 0 136 63t53 162q0 98 -53 161t-136 63q-80 0 -136.5 -65.5t-56.5 -158.5
q0 -94 56.5 -159.5t136.5 -65.5z" />
    <glyph glyph-name="abreve.alt" horiz-adv-x="612" 
d="M445 649q-60 -60 -146 -60q-85 0 -146 60l33 33q47 -47 113 -47t113 47zM480 517h49v-517h-49v105q-30 -55 -82 -86t-117 -31q-97 0 -165.5 79t-68.5 192t68.5 191.5t165.5 78.5q65 0 117 -30.5t82 -85.5v104zM291 34q83 0 136 63t53 162q0 98 -53 161t-136 63
q-80 0 -136.5 -65.5t-56.5 -158.5q0 -94 56.5 -159.5t136.5 -65.5z" />
    <glyph glyph-name="acircumflex.alt" horiz-adv-x="612" 
d="M299 675l-82 -99h-48l104 137h53l106 -137h-49zM480 517h49v-517h-49v105q-30 -55 -82 -86t-117 -31q-97 0 -165.5 79t-68.5 192t68.5 191.5t165.5 78.5q65 0 117 -30.5t82 -85.5v104zM291 34q83 0 136 63t53 162q0 98 -53 161t-136 63q-80 0 -136.5 -65.5t-56.5 -158.5
q0 -94 56.5 -159.5t136.5 -65.5z" />
    <glyph glyph-name="adieresis.alt" horiz-adv-x="612" 
d="M203 608q-15 0 -25 10.5t-10 24.5t10 24.5t25 10.5q14 0 24.5 -10.5t10.5 -24.5t-10.5 -24.5t-24.5 -10.5zM395 608q-15 0 -25 10.5t-10 24.5t10 24.5t25 10.5q14 0 24.5 -10.5t10.5 -24.5t-10.5 -24.5t-24.5 -10.5zM480 517h49v-517h-49v105q-30 -55 -82 -86t-117 -31
q-97 0 -165.5 79t-68.5 192t68.5 191.5t165.5 78.5q65 0 117 -30.5t82 -85.5v104zM291 34q83 0 136 63t53 162q0 98 -53 161t-136 63q-80 0 -136.5 -65.5t-56.5 -158.5q0 -94 56.5 -159.5t136.5 -65.5z" />
    <glyph glyph-name="agrave.alt" horiz-adv-x="612" 
d="M370 576h-51l-126 131l54 12zM480 517h49v-517h-49v105q-30 -55 -82 -86t-117 -31q-97 0 -165.5 79t-68.5 192t68.5 191.5t165.5 78.5q65 0 117 -30.5t82 -85.5v104zM291 34q83 0 136 63t53 162q0 98 -53 161t-136 63q-80 0 -136.5 -65.5t-56.5 -158.5q0 -94 56.5 -159.5
t136.5 -65.5z" />
    <glyph glyph-name="amacron.alt" horiz-adv-x="612" 
d="M454 642v-42h-310v42h310zM480 517h49v-517h-49v105q-30 -55 -82 -86t-117 -31q-97 0 -165.5 79t-68.5 192t68.5 191.5t165.5 78.5q65 0 117 -30.5t82 -85.5v104zM291 34q83 0 136 63t53 162q0 98 -53 161t-136 63q-80 0 -136.5 -65.5t-56.5 -158.5q0 -94 56.5 -159.5
t136.5 -65.5z" />
    <glyph glyph-name="aogonek.alt" horiz-adv-x="612" 
d="M584 -108l24 -36q-35 -29 -84 -29q-45 0 -73.5 28t-28.5 74q0 30 16 54t42 33v89q-30 -55 -82 -86t-117 -31q-97 0 -165.5 79t-68.5 192t68.5 191.5t165.5 78.5q65 0 117 -30.5t82 -85.5v104h49v-517q-30 0 -47 -17.5t-17 -48.5q0 -30 16.5 -46.5t47.5 -16.5q36 0 55 21z
M291 34q83 0 136 63t53 162q0 98 -53 161t-136 63q-80 0 -136.5 -65.5t-56.5 -158.5q0 -94 56.5 -159.5t136.5 -65.5z" />
    <glyph glyph-name="aring.alt" horiz-adv-x="612" 
d="M299 589q-42 0 -72.5 30.5t-30.5 72.5t30.5 72.5t72.5 30.5t72.5 -30.5t30.5 -72.5t-30.5 -72.5t-72.5 -30.5zM299 758q-26 0 -46 -20t-20 -46t20 -46t46 -20t46 20t20 46t-20 46t-46 20zM480 517h49v-517h-49v105q-30 -55 -82 -86t-117 -31q-97 0 -165.5 79t-68.5 192
t68.5 191.5t165.5 78.5q65 0 117 -30.5t82 -85.5v104zM291 34q83 0 136 63t53 162q0 98 -53 161t-136 63q-80 0 -136.5 -65.5t-56.5 -158.5q0 -94 56.5 -159.5t136.5 -65.5z" />
    <glyph glyph-name="atilde.alt" horiz-adv-x="612" 
d="M234 648q-41 0 -53 -75l-40 7q8 54 32 83t61 29q32 0 71.5 -33t57.5 -33q41 0 53 75l40 -7q-16 -112 -93 -112q-32 0 -71.5 33t-57.5 33zM480 517h49v-517h-49v105q-30 -55 -82 -86t-117 -31q-97 0 -165.5 79t-68.5 192t68.5 191.5t165.5 78.5q65 0 117 -30.5t82 -85.5
v104zM291 34q83 0 136 63t53 162q0 98 -53 161t-136 63q-80 0 -136.5 -65.5t-56.5 -158.5q0 -94 56.5 -159.5t136.5 -65.5z" />
    <glyph glyph-name="ascender" horiz-adv-x="619" 
d="M83 0v699h49v-699h-49z" />
    <glyph glyph-name="descender" horiz-adv-x="619" 
d="M83 -172v689h49v-689h-49z" />
    </font>
</defs>
</svg>
